<svg width="68" height="68" viewBox="0 0 68 68" fill="none" xmlns="http://www.w3.org/2000/svg">
<g filter="url(#filter0_d_403_1535)">
<path d="M34 16C36.7689 16 39.4757 16.8211 41.778 18.3594C44.0803 19.8978 45.8747 22.0843 46.9343 24.6424C47.9939 27.2006 48.2712 30.0155 47.731 32.7313C47.1908 35.447 45.8574 37.9416 43.8995 39.8995C41.9416 41.8574 39.447 43.1908 36.7313 43.731C34.0155 44.2712 31.2006 43.9939 28.6424 42.9343C26.0843 41.8747 23.8978 40.0803 22.3594 37.778C20.8211 35.4757 20 32.7689 20 30C20 26.287 21.475 22.726 24.1005 20.1005C26.726 17.475 30.287 16 34 16V16Z" fill="white"/>
</g>
<path d="M28.0195 26.0751C29.7333 27.5265 32.7403 30.0812 33.6252 30.8771C33.674 30.9282 33.7326 30.9688 33.7975 30.9965C33.8624 31.0242 33.9322 31.0385 34.0028 31.0385C34.0734 31.0385 34.1433 31.0242 34.2082 30.9965C34.2731 30.9688 34.3317 30.9282 34.3805 30.8771C35.2654 30.0801 38.2735 27.5254 39.9872 26.0741C40.0385 26.0305 40.0709 25.9688 40.0777 25.9019C40.0844 25.8349 40.065 25.768 40.0234 25.715C39.9266 25.5903 39.8024 25.4893 39.6604 25.4201C39.5184 25.3508 39.3624 25.315 39.2044 25.3154H28.7968C28.6391 25.3155 28.4835 25.3516 28.3419 25.421C28.2003 25.4905 28.0765 25.5914 27.98 25.7161C27.9389 25.7695 27.92 25.8367 27.9273 25.9036C27.9347 25.9706 27.9678 26.0321 28.0195 26.0751Z" fill="#2E4E78"/>
<path d="M40.0946 26.8623C40.0496 26.8413 39.9995 26.8336 39.9502 26.8402C39.901 26.8468 39.8547 26.8675 39.8168 26.8997C37.9154 28.5113 35.4902 30.5764 34.7261 31.2647C34.5302 31.451 34.2702 31.5549 33.9999 31.5549C33.7296 31.5549 33.4696 31.451 33.2737 31.2647C32.4602 30.5313 29.7353 28.216 28.184 26.9008C28.1461 26.8687 28.0999 26.8482 28.0507 26.8416C28.0015 26.835 27.9515 26.8426 27.9065 26.8635C27.8615 26.8843 27.8234 26.9176 27.7967 26.9595C27.77 27.0013 27.7559 27.0499 27.7559 27.0995V33.6427C27.7561 33.9186 27.8659 34.1832 28.061 34.3783C28.2561 34.5734 28.5207 34.6831 28.7966 34.6834H39.2042C39.4802 34.6831 39.7447 34.5734 39.9399 34.3783C40.135 34.1832 40.2447 33.9186 40.245 33.6427V27.0995C40.2452 27.0497 40.2312 27.0009 40.2045 26.9589C40.1779 26.9168 40.1397 26.8833 40.0946 26.8623Z" fill="#2E4E78"/>
<defs>
<filter id="filter0_d_403_1535" x="0" y="0" width="68" height="68" filterUnits="userSpaceOnUse" color-interpolation-filters="sRGB">
<feFlood flood-opacity="0" result="BackgroundImageFix"/>
<feColorMatrix in="SourceAlpha" type="matrix" values="0 0 0 0 0 0 0 0 0 0 0 0 0 0 0 0 0 0 127 0" result="hardAlpha"/>
<feOffset dy="4"/>
<feGaussianBlur stdDeviation="10"/>
<feColorMatrix type="matrix" values="0 0 0 0 0.203922 0 0 0 0 0.329412 0 0 0 0 0.419608 0 0 0 0.12 0"/>
<feBlend mode="normal" in2="BackgroundImageFix" result="effect1_dropShadow_403_1535"/>
<feBlend mode="normal" in="SourceGraphic" in2="effect1_dropShadow_403_1535" result="shape"/>
</filter>
</defs>
</svg>