<svg width="16" height="20" viewBox="0 0 16 20" fill="none" xmlns="http://www.w3.org/2000/svg">
<path d="M8.10981 0C8.50788 0.0652199 8.90961 0.112178 9.30297 0.19879C12.2099 0.842119 14.5161 3.29073 15.0179 6.2178C15.2855 7.77786 15.0137 9.25861 14.4443 10.7044C13.7886 12.3688 12.8541 13.8767 11.8029 15.3168C10.6323 16.9201 9.33125 18.4118 7.91968 19.8086C7.66146 20.0637 7.53942 20.0642 7.28172 19.8075C5.30343 17.8358 3.51474 15.7112 2.06703 13.3169C1.26252 11.9864 0.597848 10.5938 0.251633 9.06608C-0.45389 5.95118 1.01634 2.61819 3.79706 1.03047C4.78018 0.470105 5.82877 0.124179 6.9596 0.0318273C7.0036 0.028175 7.04707 0.0109569 7.09054 0C7.43047 0 7.7704 0 8.10981 0ZM11.0503 7.49768C11.0429 5.5943 9.49467 4.05511 7.59441 4.06294C5.67636 4.07076 4.14484 5.61204 4.1506 7.52898C4.15637 9.41462 5.72297 10.9455 7.63527 10.935C9.51405 10.9246 11.0576 9.37079 11.0503 7.49768Z" fill="#006EB7"/>
</svg>
