<svg width="18" height="16" viewBox="0 0 18 16" fill="none" xmlns="http://www.w3.org/2000/svg">
<path d="M8.77006 1.00001C8.77704 0.806459 8.85961 0.623358 9.00006 0.490006C9.14108 0.346475 9.33385 0.265625 9.53506 0.265625C9.73628 0.265625 9.92905 0.346475 10.0701 0.490006L17.0701 7.49001C17.352 7.78711 17.352 8.2529 17.0701 8.55001L10.0701 15.55C9.87357 15.7411 9.59003 15.8129 9.32625 15.7383C9.06247 15.6637 8.85853 15.4541 8.79125 15.1883C8.72397 14.9226 8.80357 14.6411 9.00006 14.45L15.4501 8.00001L9.00006 1.55001C8.84967 1.40703 8.76622 1.20748 8.77006 1.00001Z" fill="#212121"/>
<path d="M0.72998 8C0.735367 7.58804 1.06802 7.25539 1.47998 7.25L16.48 7.25C16.8942 7.25 17.23 7.58579 17.23 8C17.23 8.41421 16.8942 8.75 16.48 8.75L1.47998 8.75C1.06802 8.74461 0.735367 8.41196 0.72998 8Z" fill="#212121"/>
<path d="M8.77006 1.00001C8.77704 0.806459 8.85961 0.623358 9.00006 0.490006C9.14108 0.346475 9.33385 0.265625 9.53506 0.265625C9.73628 0.265625 9.92905 0.346475 10.0701 0.490006L17.0701 7.49001C17.352 7.78711 17.352 8.2529 17.0701 8.55001L10.0701 15.55C9.87357 15.7411 9.59003 15.8129 9.32625 15.7383C9.06247 15.6637 8.85853 15.4541 8.79125 15.1883C8.72397 14.9226 8.80357 14.6411 9.00006 14.45L15.4501 8.00001L9.00006 1.55001C8.84967 1.40703 8.76622 1.20748 8.77006 1.00001Z" fill="#212121"/>
<path d="M0.72998 8C0.735367 7.58804 1.06802 7.25539 1.47998 7.25L16.48 7.25C16.8942 7.25 17.23 7.58579 17.23 8C17.23 8.41421 16.8942 8.75 16.48 8.75L1.47998 8.75C1.06802 8.74461 0.735367 8.41196 0.72998 8Z" fill="#212121"/>
</svg>