<svg width="16" height="16" viewBox="0 0 16 16" fill="none" xmlns="http://www.w3.org/2000/svg">
<path d="M8 1.5C4.416 1.5 1.5 4.416 1.5 8C1.5 11.584 4.416 14.5 8 14.5C11.584 14.5 14.5 11.584 14.5 8C14.5 4.416 11.584 1.5 8 1.5ZM8 13.5C4.96733 13.5 2.5 11.0327 2.5 8C2.5 4.96733 4.96733 2.5 8 2.5C11.0327 2.5 13.5 4.96733 13.5 8C13.5 11.0327 11.0327 13.5 8 13.5ZM11.1667 8C11.1667 8.276 10.9427 8.5 10.6667 8.5H8C7.724 8.5 7.5 8.276 7.5 8V4.66667C7.5 4.39067 7.724 4.16667 8 4.16667C8.276 4.16667 8.5 4.39067 8.5 4.66667V7.5H10.6667C10.9427 7.5 11.1667 7.724 11.1667 8Z" fill="#3063FA"/>
</svg>
