<svg width="44" height="44" viewBox="0 0 44 44" fill="none" xmlns="http://www.w3.org/2000/svg">
<path d="M36.8566 7.1447C28.6627 -1.04758 15.3369 -1.04758 7.14298 7.1447C-1.04766 15.337 -1.04766 28.6661 7.14298 36.8583C11.2399 40.9537 16.6205 43.0005 22.001 43.0005C27.3816 43.0005 32.7597 40.9537 36.8566 36.8583C45.0481 28.6661 45.0481 15.337 36.8566 7.1447Z" fill="white" stroke="#363638" stroke-width="1.5"/>
<path d="M30.7201 28.2328C31.4091 28.9219 31.4091 30.0355 30.7201 30.7254C30.3764 31.069 29.9253 31.2417 29.4743 31.2417C29.0232 31.2417 28.5721 31.069 28.2284 30.7254L21.9983 24.4936L15.7699 30.7237C15.4245 31.0674 14.9735 31.2401 14.524 31.2401C14.0729 31.2401 13.6219 31.0674 13.2782 30.7237C12.5892 30.0347 12.5892 28.9185 13.2782 28.2312L19.5066 22.0011L13.2765 15.771C12.5875 15.082 12.5875 13.9658 13.2765 13.2785C13.9639 12.5895 15.0792 12.5895 15.7691 13.2785L21.9991 19.5086L28.2292 13.2785C28.9182 12.5895 30.0319 12.5895 30.7218 13.2785C31.4108 13.9658 31.4108 15.0812 30.7218 15.771L24.4917 22.0011L30.7201 28.2328Z" fill="#363638" stroke="white" stroke-width="1.5"/>
</svg>
