<svg width="15" height="15" viewBox="0 0 15 15" fill="none" xmlns="http://www.w3.org/2000/svg">
<path d="M7.5 15C11.6421 15 15 11.6421 15 7.5C15 3.35786 11.6421 0 7.5 0C3.35786 0 0 3.35786 0 7.5C0 11.6421 3.35786 15 7.5 15Z" fill="#006EB7"/>
<path d="M6.65098 10.0867C6.50503 10.0867 6.36558 10.0284 6.26264 9.92386L4.25294 7.88148C4.04217 7.66689 4.04489 7.32268 4.25948 7.11136C4.47407 6.90114 4.81882 6.90331 5.02959 7.1179L6.63519 8.74961L9.95693 5.09131C10.1601 4.86857 10.5043 4.85277 10.7259 5.05429C10.9487 5.25635 10.965 5.60056 10.763 5.82385L7.05402 9.90858C6.95327 10.0197 6.81166 10.084 6.66189 10.0872C6.65807 10.0867 6.6548 10.0867 6.65098 10.0867Z" fill="white"/>
</svg>
