<svg width="16" height="16" viewBox="0 0 16 16" fill="none" xmlns="http://www.w3.org/2000/svg">
<path d="M8 16C12.4183 16 16 12.4183 16 8C16 3.58172 12.4183 0 8 0C3.58172 0 0 3.58172 0 8C0 12.4183 3.58172 16 8 16Z" fill="url(#paint0_linear_707_454)"/>
<path d="M6.962 10.9994C6.79276 10.9994 6.63105 10.9318 6.51168 10.8106L4.1812 8.44219C3.93679 8.19334 3.93994 7.7942 4.18878 7.54915C4.43763 7.30538 4.8374 7.30789 5.08182 7.55673L6.94369 9.44889L10.7956 5.20667C11.0312 4.94837 11.4304 4.93006 11.6874 5.16374C11.9457 5.39806 11.9646 5.7972 11.7303 6.05614L7.42937 10.7929C7.31254 10.9217 7.14833 10.9962 6.97465 11C6.97022 10.9994 6.96643 10.9994 6.962 10.9994Z" fill="white"/>
<defs>
<linearGradient id="paint0_linear_707_454" x1="14.6417" y1="13.0095" x2="-1.82184" y2="10.0144" gradientUnits="userSpaceOnUse">
<stop stop-color="#3198FC"/>
<stop offset="1" stop-color="#0C49E2"/>
</linearGradient>
</defs>
</svg>
