<svg width="16" height="14" viewBox="0 0 16 14" fill="none" xmlns="http://www.w3.org/2000/svg">
<g clip-path="url(#clip0_2_565)">
<path d="M11.572 11.6663C11.572 11.5802 11.572 11.5144 11.572 11.4492C11.572 10.3858 11.5725 9.32245 11.572 8.25957C11.572 7.81407 11.346 7.58377 10.908 7.58377C8.64833 7.58328 6.38868 7.58328 4.12952 7.58377C3.70309 7.58377 3.47418 7.81699 3.47418 8.25032C3.47369 9.31369 3.47418 10.3771 3.47418 11.4399C3.47418 11.5061 3.47418 11.5728 3.47418 11.6522C3.42202 11.6576 3.37662 11.6658 3.33075 11.6658C2.80676 11.6668 2.2823 11.6702 1.75831 11.6654C0.766851 11.6566 0.00816235 10.8941 0.00478182 9.89454C-4.75178e-05 8.35111 -0.000530451 6.80816 0.00478182 5.26472C0.00816235 4.26319 0.765885 3.5017 1.76169 3.50073C5.60005 3.4978 9.43792 3.4978 13.2763 3.50073C14.2842 3.50121 15.0395 4.25978 15.0424 5.27349C15.0472 6.81059 15.0472 8.3477 15.0424 9.88481C15.039 10.897 14.2827 11.6576 13.2801 11.6649C12.719 11.6697 12.1593 11.6663 11.572 11.6663ZM12.1515 5.25109C11.8284 5.2506 11.5681 5.51839 11.5725 5.84655C11.5764 6.15816 11.8294 6.41281 12.138 6.41621C12.463 6.42011 12.7291 6.15621 12.7277 5.83097C12.7267 5.51304 12.4664 5.25109 12.1515 5.25109Z" fill="#006EB7"/>
<path d="M11.5662 2.90794C8.8603 2.90794 6.17616 2.90794 3.47318 2.90794C3.47318 2.63431 3.47318 2.36896 3.47318 2.10312C3.47318 1.61136 3.47173 1.11911 3.47366 0.627356C3.47559 0.244662 3.71561 0.000730333 4.0952 0.000730333C6.37802 -0.000243444 8.66133 -0.000243444 10.9442 0.000730333C11.3271 0.000730333 11.5696 0.240766 11.571 0.621513C11.5734 1.34454 11.572 2.06709 11.5715 2.79012C11.5715 2.82517 11.5686 2.86071 11.5662 2.90794Z" fill="#006EB7"/>
<path d="M4.6301 8.7583C6.56183 8.7583 8.47522 8.7583 10.4147 8.7583C10.4147 8.81624 10.4147 8.87369 10.4147 8.93163C10.4147 10.3957 10.4152 11.8593 10.4147 13.3234C10.4147 13.7723 10.192 13.9987 9.75113 13.9992C8.26321 13.9997 6.77529 13.9997 5.28737 13.9992C4.85901 13.9992 4.63058 13.7684 4.6301 13.3356C4.62961 11.817 4.6301 10.2983 4.6301 8.7583ZM7.50404 11.0827C7.87734 11.0827 8.25113 11.0842 8.62444 11.0822C8.99389 11.0808 9.25419 10.8407 9.2566 10.5038C9.25902 10.1659 8.99775 9.91759 8.63265 9.91661C7.89183 9.91515 7.15101 9.91467 6.40971 9.91661C6.04316 9.91759 5.78431 10.164 5.78672 10.5038C5.78914 10.8407 6.05041 11.0808 6.41937 11.0827C6.78157 11.0842 7.1428 11.0827 7.50404 11.0827ZM7.52239 11.666C7.14908 11.666 6.77529 11.6641 6.40198 11.6665C6.04703 11.6689 5.79059 11.9119 5.78769 12.244C5.78527 12.575 6.04268 12.8302 6.39281 12.8316C7.1457 12.8346 7.89859 12.8346 8.65149 12.8316C9.0021 12.8302 9.2595 12.576 9.25709 12.2449C9.25467 11.9143 8.9963 11.6689 8.64279 11.667C8.269 11.6641 7.8957 11.666 7.52239 11.666Z" fill="#006EB7"/>
</g>
<defs>
<clipPath id="clip0_2_565">
<rect width="15.0453" height="14" fill="white"/>
</clipPath>
</defs>
</svg>
