<svg width="10" height="11" viewBox="0 0 10 11" fill="none" xmlns="http://www.w3.org/2000/svg">
<path d="M9.55154 10.5251V7.0306C9.55154 5.32144 9.18321 4.00172 7.18207 4.00172C6.8065 3.98881 6.43445 4.07775 6.10544 4.25908C5.77644 4.44041 5.50278 4.70735 5.31354 5.03154H5.28581V4.16614H3.38867V10.5268H5.36467V7.37502C5.36467 6.54597 5.52241 5.74375 6.55027 5.74375C7.56341 5.74375 7.57901 6.6905 7.57901 7.42781V10.5242L9.55154 10.5251Z" fill="#6F707D"/>
<path d="M0.171875 4.16406H2.14614V10.5247H0.171875V4.16406Z" fill="#6F707D"/>
<path d="M1.15808 0.998059C0.930002 0.997032 0.706766 1.06369 0.516702 1.18958C0.326637 1.31546 0.178314 1.49489 0.0905587 1.7051C0.00280344 1.91531 -0.0204269 2.14681 0.0238162 2.37023C0.0680593 2.59364 0.177781 2.79889 0.339054 2.95993C0.500327 3.12096 0.705881 3.23052 0.929623 3.2747C1.15337 3.31888 1.38521 3.29569 1.59573 3.20806C1.80624 3.12043 1.98594 2.97233 2.11201 2.78254C2.23808 2.59276 2.30484 2.36985 2.30381 2.14211C2.30381 1.83869 2.1831 1.54769 1.96823 1.33314C1.75336 1.11859 1.46194 0.998059 1.15808 0.998059Z" fill="#6F707D"/>
</svg>
