<svg width="11" height="11" viewBox="0 0 11 11" fill="none" xmlns="http://www.w3.org/2000/svg">
<path d="M11.0002 10.9979V6.96398C11.0002 4.99096 10.5759 3.46748 8.2705 3.46748C7.83783 3.45259 7.40921 3.55526 7.03019 3.76458C6.65117 3.9739 6.3359 4.28205 6.11789 4.65629H6.08594V3.65729H3.90039V10.9999H6.1768V7.36159C6.1768 6.40454 6.35851 5.47847 7.54265 5.47847C8.70981 5.47847 8.72778 6.57138 8.72778 7.42252V10.9969L11.0002 10.9979Z" fill="#2A3832" fill-opacity="0.75"/>
<path d="M0.198242 3.65527H2.47266V10.9979H0.198242V3.65527Z" fill="#2A3832" fill-opacity="0.75"/>
<path d="M1.33189 1.34859e-05C1.06914 -0.00117165 0.811966 0.0757792 0.593006 0.221099C0.374046 0.366419 0.203173 0.573555 0.102076 0.816216C0.000979593 1.05888 -0.0257825 1.32612 0.0251869 1.58403C0.0761563 1.84193 0.202559 2.07887 0.38835 2.26477C0.574142 2.45067 0.810946 2.57715 1.0687 2.62814C1.32646 2.67914 1.59355 2.65237 1.83607 2.55121C2.07859 2.45006 2.28561 2.27909 2.43085 2.06C2.57608 1.84091 2.65299 1.58359 2.65181 1.32069C2.65181 0.970426 2.51274 0.634507 2.26521 0.386831C2.01768 0.139156 1.68195 1.34859e-05 1.33189 1.34859e-05Z" fill="#2A3832" fill-opacity="0.75"/>
</svg>
