<svg width="220" height="50" viewBox="0 0 220 50" fill="none" xmlns="http://www.w3.org/2000/svg">
<path d="M53.9375 20.7217C53.9375 14.1215 59.4798 8.58154 65.9806 8.58154C72.4815 8.58154 77.9886 14.1215 77.9886 20.7217C77.9886 27.3219 72.5144 32.8959 65.9806 32.8959C59.4469 32.8959 53.9375 27.3219 53.9375 20.7217ZM75.2855 20.7217C75.2855 15.489 71.0431 11.0443 65.9795 11.0443C60.9159 11.0443 56.6395 15.4901 56.6395 20.7217C56.6395 25.9533 60.9159 30.4343 65.9795 30.4343C71.0431 30.4343 75.2855 25.9885 75.2855 20.7217Z" fill="#363638"/>
<path d="M89.2095 11.5229H81.3066V8.99219H99.7814V11.5229H91.8786V32.4856H89.2095V11.5229Z" fill="#363638"/>
<path d="M112.814 29.1338L114.491 27.0475C116.475 29.0306 118.905 30.4332 122.189 30.4332C125.815 30.4332 127.663 28.45 127.663 26.3297C127.663 23.833 125.44 22.842 121.333 21.8839C116.612 20.7897 113.636 19.3191 113.636 15.2497C113.636 11.4876 116.989 8.54639 121.505 8.54639C124.994 8.54639 127.595 9.91381 129.75 11.8981L128.107 13.9843C126.158 12.1033 123.831 10.9751 121.367 10.9751C118.459 10.9751 116.338 12.8902 116.338 15.0445C116.338 17.4721 118.664 18.327 122.667 19.2851C127.149 20.3453 130.365 21.9531 130.365 26.0905C130.365 29.8186 127.56 32.8619 122.085 32.8619C118.22 32.8619 115.175 31.4593 112.814 29.1338Z" fill="#363638"/>
<path d="M142.339 22.91L149.865 32.4854H146.649L140.525 24.6539L137.343 27.8004V32.4854H134.777V8.58154H137.343V24.5859L147.025 14.8053H150.309L142.338 22.91H142.339Z" fill="#363638"/>
<path d="M166.935 28.4843L168.509 30.1601C166.969 31.8359 163.856 32.8961 161.393 32.8961C156.672 32.8961 152.43 29.0319 152.43 23.594C152.43 18.156 156.399 14.395 161.154 14.395C166.491 14.395 169.535 18.4304 169.535 24.6201H155.064C155.44 28.0738 157.869 30.6046 161.359 30.6046C163.446 30.6046 165.841 29.6816 166.935 28.4843ZM155.098 22.3286H167.004C166.661 19.1481 164.78 16.6865 161.256 16.6865C158.108 16.6865 155.576 18.9089 155.098 22.3286Z" fill="#363638"/>
<path d="M182.778 31.7675C181.854 32.4852 180.69 32.8956 179.494 32.8956C176.962 32.8956 175.183 31.0146 175.183 28.3818V17.0965H172.412V14.805H175.183V9.94873H177.749V14.805H182.094V17.0965H177.749V28.3818C177.749 29.6812 178.638 30.6041 179.665 30.6041C180.452 30.6041 181.136 30.2969 181.513 29.8864L182.779 31.7675H182.778Z" fill="#363638"/>
<path d="M185.449 23.628C185.449 18.6005 189.658 14.395 194.618 14.395C197.013 14.395 199.237 15.3871 200.913 16.9938L199.135 18.7377C197.972 17.4723 196.364 16.6854 194.619 16.6854C191.095 16.6854 188.153 19.8659 188.153 23.628C188.153 27.3901 191.096 30.6046 194.619 30.6046C196.398 30.6046 198.04 29.7837 199.238 28.4503L201.017 30.1941C199.34 31.87 197.083 32.8961 194.619 32.8961C189.659 32.8961 185.45 28.6555 185.45 23.628H185.449Z" fill="#363638"/>
<path d="M220 21.2342V32.4854H217.434V21.5766C217.434 18.7046 215.62 16.6863 213.021 16.6863C210.044 16.6863 207.546 18.7726 207.546 21.2342V32.4854H204.98V8.58154H207.546V17.6444C208.573 15.7634 210.865 14.3959 213.362 14.3959C217.262 14.3959 219.999 17.234 219.999 21.2353L220 21.2342Z" fill="#363638"/>
<path d="M44.5068 9.1529C44.5068 9.14496 44.5068 9.13703 44.5057 9.12796C44.5034 9.10301 44.5 9.0792 44.4943 9.05425V9.05199C44.4875 9.02704 44.4796 9.00323 44.4705 8.97942C44.4671 8.97262 44.4637 8.96468 44.4614 8.95788C44.4546 8.942 44.4467 8.925 44.4376 8.91026C44.4331 8.90232 44.4285 8.89552 44.424 8.88758C44.4149 8.8717 44.4036 8.85696 44.3934 8.84336C44.3888 8.83769 44.3843 8.83089 44.3798 8.82522C44.3639 8.80594 44.3469 8.7878 44.3276 8.76966C44.3242 8.76626 44.3208 8.76399 44.3174 8.76059C44.3049 8.74925 44.2913 8.73791 44.2777 8.72771C44.2743 8.72544 44.2709 8.7243 44.2686 8.72204C44.2618 8.7175 44.2538 8.71297 44.2459 8.7073C44.2312 8.69709 44.2153 8.68915 44.1994 8.68008C44.1949 8.67782 44.1903 8.67441 44.1858 8.67215L26.0354 0.0548628C25.9061 -0.0063653 25.7586 -0.01657 25.6225 0.0253826L5.31807 6.37609H5.3158C5.29085 6.38516 5.26589 6.39537 5.24207 6.40671C5.23526 6.41011 5.22846 6.41464 5.22052 6.41805C5.20804 6.42485 5.19556 6.43052 5.18309 6.43846C5.17968 6.44072 5.17628 6.44299 5.17288 6.44526C5.16494 6.45093 5.157 6.4566 5.14906 6.4634C5.13544 6.47361 5.12297 6.48381 5.11049 6.49401C5.10255 6.50082 5.09574 6.50762 5.0878 6.51442C5.07646 6.52576 5.06512 6.53823 5.05491 6.55071C5.0481 6.55864 5.04243 6.56545 5.03676 6.57338C5.02541 6.58812 5.01634 6.60286 5.00613 6.6176C5.00159 6.62441 4.99706 6.63121 4.99252 6.63801C4.98004 6.66069 4.9687 6.68337 4.95962 6.70718C4.95849 6.71171 4.95735 6.71625 4.95509 6.71965C4.94715 6.74006 4.94147 6.76047 4.9358 6.78201C4.93353 6.79108 4.9324 6.79902 4.93127 6.80809C4.92786 6.82623 4.92559 6.84324 4.92332 6.86138C4.92332 6.86592 4.92219 6.87045 4.92106 6.87499C4.92106 6.88066 4.92106 6.88519 4.92106 6.89086C4.92106 6.8988 4.91992 6.90674 4.91992 6.91467V31.2925C4.91992 31.5125 5.04697 31.712 5.24661 31.8062L23.6227 40.4234C23.6431 40.4325 23.6647 40.4416 23.6851 40.4484C23.6896 40.4495 23.6942 40.4506 23.6976 40.4518C23.7191 40.4586 23.7407 40.4631 23.7634 40.4677C23.7702 40.4688 23.777 40.4699 23.7838 40.4711C23.8099 40.4745 23.836 40.4767 23.8632 40.4767C23.8904 40.4767 23.9188 40.4745 23.946 40.4699C23.9551 40.4688 23.963 40.4665 23.9709 40.4643C23.9902 40.4609 24.0084 40.4563 24.0277 40.4506C24.0299 40.4506 24.0322 40.4506 24.0345 40.4495L44.1121 34.0999C44.348 34.0251 44.5079 33.8063 44.5079 33.5591V9.18465C44.5079 9.17331 44.5068 9.16311 44.5057 9.1529H44.5068ZM25.7496 1.17511L42.397 9.0792L23.9052 14.9276L7.04905 7.02239L25.7496 1.17511ZM6.05538 7.81382L23.2972 16.0059V39.0197L6.05538 30.9342V7.81382ZM24.4315 39.1376V16.0603L43.3747 9.96247V33.1475L24.4315 39.1388V39.1376Z" fill="url(#paint0_linear_704_60)"/>
<path d="M24.7153 49.9999C15.9333 49.9999 7.15476 46.748 0.3125 40.242L1.16211 39.3496C14.3702 51.9082 35.0615 51.9082 48.2696 39.3496L49.1192 40.242C42.2781 46.7469 33.4961 49.9999 24.7164 49.9999H24.7153Z" fill="url(#paint1_linear_704_60)"/>
<path d="M1.96208 45.8386C2.15945 45.7898 2.28082 45.5891 2.23205 45.3907L0.868587 39.904L6.41998 40.9891C6.62076 41.0277 6.81473 40.8973 6.8533 40.6977C6.89186 40.4981 6.76028 40.3031 6.56177 40.2634L0.440946 39.0672C0.317304 39.0434 0.189126 39.0842 0.101782 39.1749C0.0144392 39.2668 -0.0195906 39.396 0.0110362 39.5185L1.51515 45.5687C1.5333 45.639 1.5696 45.7003 1.61951 45.7467C1.70799 45.8307 1.83617 45.8692 1.96321 45.8375L1.96208 45.8386Z" fill="url(#paint2_linear_704_60)"/>
<path d="M47.4713 45.8386C47.274 45.7898 47.1526 45.5891 47.2014 45.3907L48.5648 39.904L43.0134 40.9891C42.8127 41.0277 42.6187 40.8973 42.579 40.6977C42.5404 40.4981 42.672 40.3031 42.8705 40.2634L48.9913 39.0672C49.115 39.0434 49.2432 39.0842 49.3305 39.1749C49.4178 39.2668 49.4519 39.396 49.4212 39.5185L47.9171 45.5687C47.899 45.639 47.8627 45.7003 47.8128 45.7467C47.7243 45.8307 47.5961 45.8692 47.4691 45.8375L47.4713 45.8386Z" fill="url(#paint3_linear_704_60)"/>
<defs>
<linearGradient id="paint0_linear_704_60" x1="4.92106" y1="20.2397" x2="44.5091" y2="20.2397" gradientUnits="userSpaceOnUse">
<stop stop-color="#2F54AE"/>
<stop offset="0.49" stop-color="#2F63FA"/>
<stop offset="1" stop-color="#2EB5EA"/>
</linearGradient>
<linearGradient id="paint1_linear_704_60" x1="-0.335201" y1="44.6742" x2="49.7658" y2="44.6742" gradientUnits="userSpaceOnUse">
<stop stop-color="#2EB5EA"/>
<stop offset="0.51" stop-color="#2F63FA"/>
<stop offset="1" stop-color="#2F54AE"/>
</linearGradient>
<linearGradient id="paint2_linear_704_60" x1="-0.333799" y1="42.454" x2="49.7672" y2="42.454" gradientUnits="userSpaceOnUse">
<stop stop-color="#2EB5EA"/>
<stop offset="0.51" stop-color="#2F63FA"/>
<stop offset="1" stop-color="#2F54AE"/>
</linearGradient>
<linearGradient id="paint3_linear_704_60" x1="-0.332617" y1="42.454" x2="49.7683" y2="42.454" gradientUnits="userSpaceOnUse">
<stop stop-color="#2EB5EA"/>
<stop offset="0.51" stop-color="#2F63FA"/>
<stop offset="1" stop-color="#2F54AE"/>
</linearGradient>
</defs>
</svg>
