<?xml version="1.0" encoding="UTF-8"?><svg id="Layer_2" xmlns="http://www.w3.org/2000/svg" xmlns:xlink="http://www.w3.org/1999/xlink" viewBox="0 0 1949.07 442.19"><defs><style>.cls-1{fill:url(#linear-gradient-2);}.cls-2{fill:#2f63fa;}.cls-3{fill:#2f92fa;}.cls-4{fill:#2f54ae;}.cls-5{fill:none;stroke:url(#linear-gradient);stroke-miterlimit:10;stroke-width:10.86px;}.cls-6{fill:#363638;}.cls-7{fill:url(#linear-gradient-3);}</style><linearGradient id="linear-gradient" x1="-2.94" y1="395.27" x2="438.74" y2="395.27" gradientTransform="matrix(1, 0, 0, 1, 0, 0)" gradientUnits="userSpaceOnUse"><stop offset="0" stop-color="#2eb5ea"/><stop offset=".51" stop-color="#2f63fa"/><stop offset="1" stop-color="#2f54ae"/></linearGradient><linearGradient id="linear-gradient-2" y1="375.73" x2="438.74" y2="375.73" xlink:href="#linear-gradient"/><linearGradient id="linear-gradient-3" x1="-2.94" y1="375.73" x2="438.74" y2="375.73" xlink:href="#linear-gradient"/></defs><g id="Layer_2-2"><g><g><path class="cls-6" d="M483.04,183.53c0-58.29,48.93-107.22,106.31-107.22s106.01,48.93,106.01,107.22-48.32,107.52-106.01,107.52-106.31-49.23-106.31-107.52Zm188.46,0c0-46.21-37.45-85.47-82.15-85.47s-82.45,39.26-82.45,85.47,37.75,85.77,82.45,85.77,82.15-39.26,82.15-85.77Z"/><path class="cls-6" d="M794.43,102.28h-69.77v-22.35h163.09v22.35h-69.77v185.14h-23.56V102.28Z"/><path class="cls-6" d="M1002.82,257.82l14.8-18.42c17.52,17.52,38.96,29.9,67.95,29.9,32.01,0,48.32-17.52,48.32-36.24,0-22.05-19.63-30.81-55.87-39.26-41.68-9.66-67.95-22.65-67.95-58.59,0-33.22,29.6-59.2,69.47-59.2,30.81,0,53.76,12.08,72.79,29.6l-14.5,18.42c-17.22-16.61-37.75-26.58-59.5-26.58-25.67,0-44.4,16.91-44.4,35.94,0,21.44,20.54,28.99,55.87,37.45,39.57,9.36,67.96,23.56,67.96,60.1,0,32.92-24.77,59.8-73.09,59.8-34.13,0-61.01-12.38-81.85-32.92Z"/><path class="cls-6" d="M1263.47,202.85l66.45,84.57h-28.39l-54.06-69.16-28.09,27.79v41.38h-22.65V76.31h22.65V217.65l85.47-86.38h28.99l-70.37,71.58Z"/><path class="cls-6" d="M1480.63,252.08l13.89,14.8c-13.59,14.8-41.08,24.16-62.82,24.16-41.68,0-79.13-34.13-79.13-82.15s35.03-81.24,77.02-81.24c47.11,0,74,35.64,74,90.31h-127.76c3.32,30.5,24.77,52.85,55.57,52.85,18.42,0,39.57-8.15,49.23-18.73Zm-104.5-54.36h105.1c-3.02-28.09-19.63-49.83-50.74-49.83-27.79,0-50.14,19.63-54.36,49.83Z"/><path class="cls-6" d="M1620.47,281.08c-8.15,6.34-18.42,9.97-28.99,9.97-22.35,0-38.05-16.61-38.05-39.87v-99.67h-24.46v-20.23h24.46v-42.89h22.65v42.89h38.36v20.23h-38.36v99.67c0,11.48,7.85,19.63,16.91,19.63,6.95,0,12.99-2.72,16.31-6.34l11.17,16.61Z"/><path class="cls-6" d="M1644.03,209.2c0-44.4,37.15-81.55,80.94-81.55,21.14,0,40.77,8.76,55.57,22.95l-15.7,15.4c-10.27-11.18-24.46-18.12-39.87-18.12-31.11,0-57.08,28.09-57.08,61.31s25.97,61.61,57.08,61.61c15.7,0,30.2-7.25,40.77-19.03l15.7,15.4c-14.8,14.8-34.73,23.86-56.48,23.86-43.79,0-80.94-37.45-80.94-81.85Z"/><path class="cls-6" d="M1949.07,188.06v99.37h-22.65v-96.35c0-25.37-16.01-43.19-38.96-43.19-26.28,0-48.32,18.42-48.32,40.17v99.37h-22.65V76.31h22.65v80.04c9.06-16.61,29.3-28.69,51.34-28.69,34.43,0,58.59,25.07,58.59,60.4Z"/></g><g><polygon class="cls-3" points="394.76 291 217.76 347 217.76 132 394.76 76 394.76 291"/><polygon class="cls-2" points="55.76 271 217.76 347 217.76 132 55.76 56 55.76 271"/><polygon class="cls-4" points="217.76 133 55.76 56 234.76 0 394.76 76 217.76 133"/></g><g><path class="cls-5" d="M6.51,352.27c118.42,112.65,304.35,112.65,422.78,0"/><path class="cls-1" d="M17.3,405.57c1.74-.43,2.81-2.2,2.38-3.95l-12.02-48.39,48.94,9.57c1.77,.34,3.48-.81,3.82-2.57,.34-1.76-.82-3.48-2.57-3.83l-53.96-10.55c-1.09-.21-2.22,.15-2.99,.95-.77,.81-1.07,1.95-.8,3.03l13.26,53.36c.16,.62,.48,1.16,.92,1.57,.78,.74,1.91,1.08,3.03,.8Z"/><path class="cls-7" d="M418.49,405.57c-1.75-.43-2.81-2.2-2.38-3.95l12.02-48.39-48.94,9.57c-1.77,.34-3.48-.81-3.82-2.57-.34-1.76,.82-3.48,2.57-3.83l53.96-10.55c1.09-.21,2.22,.15,2.99,.95,.77,.81,1.07,1.95,.8,3.03l-13.26,53.36c-.16,.62-.48,1.16-.92,1.57-.78,.74-1.91,1.08-3.03,.8Z"/></g></g></g></svg>