<?xml version="1.0" encoding="UTF-8"?><svg id="Layer_2" xmlns="http://www.w3.org/2000/svg" xmlns:xlink="http://www.w3.org/1999/xlink" viewBox="0 0 1939.47 440.97"><defs><style>.cls-1{fill:url(#linear-gradient-2);}.cls-2{fill:#363638;}.cls-3{fill:url(#linear-gradient-3);}.cls-4{fill:url(#linear-gradient);}.cls-5{fill:url(#linear-gradient-4);}</style><linearGradient id="linear-gradient" x1="43.4" y1="178.5" x2="392.4" y2="178.5" gradientTransform="matrix(1, 0, 0, 1, 0, 0)" gradientUnits="userSpaceOnUse"><stop offset="0" stop-color="#2f54ae"/><stop offset=".49" stop-color="#2f63fa"/><stop offset="1" stop-color="#2eb5ea"/></linearGradient><linearGradient id="linear-gradient-2" x1="-2.94" y1="394" x2="438.74" y2="394" gradientTransform="matrix(1, 0, 0, 1, 0, 0)" gradientUnits="userSpaceOnUse"><stop offset="0" stop-color="#2eb5ea"/><stop offset=".51" stop-color="#2f63fa"/><stop offset="1" stop-color="#2f54ae"/></linearGradient><linearGradient id="linear-gradient-3" x1="-2.94" y1="374.42" x2="438.74" y2="374.42" xlink:href="#linear-gradient-2"/><linearGradient id="linear-gradient-4" x1="-2.94" y1="374.42" x2="438.74" y2="374.42" xlink:href="#linear-gradient-2"/></defs><g id="Layer_1-2"><g><g><path class="cls-2" d="M475.5,182.75c0-58.21,48.86-107.07,106.17-107.07s105.86,48.86,105.86,107.07-48.26,107.37-105.86,107.37-106.17-49.16-106.17-107.37Zm188.2,0c0-46.15-37.4-85.35-82.04-85.35s-82.34,39.21-82.34,85.35,37.7,85.66,82.34,85.66,82.04-39.21,82.04-85.66Z"/><path class="cls-2" d="M786.45,101.62h-69.67v-22.32h162.87v22.32h-69.67v184.88h-23.53V101.62Z"/><path class="cls-2" d="M994.55,256.94l14.78-18.4c17.49,17.49,38.91,29.86,67.86,29.86,31.97,0,48.26-17.49,48.26-36.19,0-22.02-19.6-30.76-55.8-39.21-41.62-9.65-67.86-22.62-67.86-58.51,0-33.18,29.56-59.12,69.37-59.12,30.76,0,53.69,12.06,72.69,29.56l-14.48,18.4c-17.19-16.59-37.7-26.54-59.42-26.54-25.64,0-44.34,16.89-44.34,35.89,0,21.41,20.51,28.95,55.8,37.4,39.51,9.35,67.86,23.53,67.86,60.02,0,32.88-24.73,59.72-72.99,59.72-34.08,0-60.92-12.37-81.73-32.88Z"/><path class="cls-2" d="M1254.84,202.05l66.35,84.45h-28.35l-53.99-69.07-28.05,27.75v41.32h-22.62V75.68h22.62V216.83l85.35-86.26h28.95l-70.27,71.48Z"/><path class="cls-2" d="M1471.69,251.21l13.87,14.78c-13.57,14.78-41.02,24.13-62.73,24.13-41.62,0-79.02-34.08-79.02-82.04s34.99-81.13,76.91-81.13c47.05,0,73.89,35.59,73.89,90.18h-127.58c3.32,30.46,24.73,52.78,55.5,52.78,18.4,0,39.51-8.14,49.16-18.7Zm-104.36-54.29h104.96c-3.02-28.05-19.6-49.76-50.67-49.76-27.75,0-50.07,19.6-54.29,49.76Z"/><path class="cls-2" d="M1611.33,280.17c-8.14,6.33-18.4,9.95-28.95,9.95-22.32,0-38-16.59-38-39.81v-99.53h-24.43v-20.21h24.43v-42.83h22.62v42.83h38.3v20.21h-38.3v99.53c0,11.46,7.84,19.6,16.89,19.6,6.94,0,12.97-2.71,16.29-6.33l11.16,16.59Z"/><path class="cls-2" d="M1634.86,208.38c0-44.34,37.1-81.43,80.83-81.43,21.11,0,40.72,8.75,55.5,22.92l-15.68,15.38c-10.25-11.16-24.43-18.1-39.81-18.1-31.07,0-57,28.05-57,61.23s25.94,61.53,57,61.53c15.68,0,30.16-7.24,40.72-19l15.68,15.38c-14.78,14.78-34.68,23.83-56.4,23.83-43.73,0-80.83-37.4-80.83-81.74Z"/><path class="cls-2" d="M1939.47,187.27v99.23h-22.62v-96.21c0-25.33-15.99-43.13-38.91-43.13-26.24,0-48.26,18.4-48.26,40.11v99.23h-22.62V75.68h22.62v79.93c9.05-16.59,29.26-28.65,51.27-28.65,34.38,0,58.51,25.03,58.51,60.32Z"/></g><path class="cls-4" d="M392.38,80.72c0-.07,0-.14-.01-.22-.02-.22-.05-.43-.1-.65v-.02c-.06-.22-.13-.43-.21-.64-.03-.06-.06-.13-.08-.19-.06-.14-.13-.29-.21-.42-.04-.07-.08-.13-.12-.2-.08-.14-.18-.27-.27-.39-.04-.05-.08-.11-.12-.16-.14-.17-.29-.33-.46-.49-.03-.03-.06-.05-.09-.08-.11-.1-.23-.2-.35-.29-.03-.02-.06-.03-.08-.05-.06-.04-.13-.08-.2-.13-.13-.09-.27-.16-.41-.24-.04-.02-.08-.05-.12-.07L229.54,.48c-1.14-.54-2.44-.63-3.64-.26L46.9,56.23h-.02c-.22,.08-.44,.17-.65,.27-.06,.03-.12,.07-.19,.1-.11,.06-.22,.11-.33,.18-.03,.02-.06,.04-.09,.06-.07,.05-.14,.1-.21,.16-.12,.09-.23,.18-.34,.27-.07,.06-.13,.12-.2,.18-.1,.1-.2,.21-.29,.32-.06,.07-.11,.13-.16,.2-.1,.13-.18,.26-.27,.39-.04,.06-.08,.12-.12,.18-.11,.2-.21,.4-.29,.61-.01,.04-.02,.08-.04,.11-.07,.18-.12,.36-.17,.55-.02,.08-.03,.15-.04,.23-.03,.16-.05,.31-.07,.47,0,.04-.01,.08-.02,.12,0,.05,0,.09,0,.14,0,.07-.01,.14-.01,.21v215c0,1.94,1.12,3.7,2.88,4.53l162,76c.18,.08,.37,.16,.55,.22,.04,.01,.08,.02,.11,.03,.19,.06,.38,.1,.58,.14,.06,.01,.12,.02,.18,.03,.23,.03,.46,.05,.7,.05,.24,0,.49-.02,.73-.06,.08-.01,.15-.03,.22-.05,.17-.03,.33-.07,.5-.12,.02,0,.04,0,.06-.01l177-56c2.08-.66,3.49-2.59,3.49-4.77V81c0-.1-.01-.19-.02-.28ZM227.02,10.36l146.76,69.71-163.02,51.58L62.16,61.93,227.02,10.36ZM53.4,68.91l152,72.25v202.97L53.4,272.82V68.91ZM215.4,345.17V141.64l167-53.78v204.48l-167,52.84Z"/><g><path class="cls-1" d="M217.9,440.97c-77.42,0-154.81-28.68-215.13-86.06l7.49-7.87c116.44,110.76,298.85,110.76,415.29,0l7.49,7.87c-60.31,57.37-137.73,86.06-215.13,86.06Z"/><path class="cls-3" d="M17.3,404.27c1.74-.43,2.81-2.2,2.38-3.95l-12.02-48.39,48.94,9.57c1.77,.34,3.48-.81,3.82-2.57,.34-1.76-.82-3.48-2.57-3.83l-53.96-10.55c-1.09-.21-2.22,.15-2.99,.95-.77,.81-1.07,1.95-.8,3.03l13.26,53.36c.16,.62,.48,1.16,.92,1.57,.78,.74,1.91,1.08,3.03,.8Z"/><path class="cls-5" d="M418.49,404.27c-1.74-.43-2.81-2.2-2.38-3.95l12.02-48.39-48.94,9.57c-1.77,.34-3.48-.81-3.83-2.57-.34-1.76,.82-3.48,2.57-3.83l53.96-10.55c1.09-.21,2.22,.15,2.99,.95,.77,.81,1.07,1.95,.8,3.03l-13.26,53.36c-.16,.62-.48,1.16-.92,1.57-.78,.74-1.91,1.08-3.03,.8Z"/></g></g></g></svg>