<?xml version="1.0" encoding="UTF-8"?>
<svg xmlns="http://www.w3.org/2000/svg" version="1.1" xmlns:xlink="http://www.w3.org/1999/xlink" viewBox="0 0 1294.9 386.6">
  <defs>
    <style>
      .cls-1 {
        fill: url(#linear-gradient-2);
      }

      .cls-2 {
        fill: #2f92fa;
      }

      .cls-3 {
        fill: url(#linear-gradient-3);
      }

      .cls-4 {
        fill: #2f63fa;
      }

      .cls-5 {
        fill: #333;
      }

      .cls-6 {
        fill: #2f54ae;
      }

      .cls-7 {
        fill: url(#linear-gradient);
      }
    </style>
    <linearGradient id="linear-gradient" x1="-.3" y1="346" x2="382" y2="346" gradientUnits="userSpaceOnUse">
      <stop offset="0" stop-color="#2eb5ea"/>
      <stop offset=".5" stop-color="#2f63fa"/>
      <stop offset="1" stop-color="#2f54ae"/>
    </linearGradient>
    <linearGradient id="linear-gradient-2" x1="-.3" y1="329" x2="382" y2="329" xlink:href="#linear-gradient"/>
    <linearGradient id="linear-gradient-3" x1="-.3" y1="329" x2="382" y2="329" xlink:href="#linear-gradient"/>
  </defs>
  <!-- Generator: Adobe Illustrator 28.6.0, SVG Export Plug-In . SVG Version: 1.2.0 Build 578)  -->
  <g>
    <g id="Layer_1">
      <g>
        <g>
          <g>
            <polygon class="cls-2" points="342.5 260.7 189.2 309.1 189.2 123 342.5 74.5 342.5 260.7"/>
            <polygon class="cls-4" points="39.3 243.4 179.5 309.1 179.5 123 39.3 57.2 39.3 243.4"/>
            <polygon class="cls-6" points="184.4 115.1 44.1 48.5 199.1 0 337.6 65.8 184.4 115.1"/>
          </g>
          <g>
            <path class="cls-7" d="M190.9,386.6c-67,0-134-24.8-186.2-74.5l6.5-6.8c100.8,95.9,258.7,95.9,359.5,0l6.5,6.8c-52.2,49.7-119.2,74.5-186.2,74.5Z"/>
            <path class="cls-1" d="M17.2,354.8c1.5-.4,2.4-1.9,2.1-3.4l-10.4-41.9,42.4,8.3c1.5.3,3-.7,3.3-2.2.3-1.5-.7-3-2.2-3.3l-46.7-9.1c-.9-.2-1.9.1-2.6.8-.7.7-.9,1.7-.7,2.6l11.5,46.2c.1.5.4,1,.8,1.4.7.6,1.7.9,2.6.7Z"/>
            <path class="cls-3" d="M364.5,354.8c-1.5-.4-2.4-1.9-2.1-3.4l10.4-41.9-42.4,8.3c-1.5.3-3-.7-3.3-2.2-.3-1.5.7-3,2.2-3.3l46.7-9.1c.9-.2,1.9.1,2.6.8.7.7.9,1.7.7,2.6l-11.5,46.2c-.1.5-.4,1-.8,1.4-.7.6-1.7.9-2.6.7Z"/>
          </g>
        </g>
        <g>
          <path class="cls-5" d="M632.4,260.5v-76.4c0-15.3-3.7-26.2-11.1-32.7-7.4-6.5-16.9-9.7-28.4-9.7s-10.9.8-15.8,2.5c-4.9,1.7-9.2,4.3-12.9,7.9-3.7,3.6-6.6,8.3-8.7,14-2.1,5.7-3.2,12.6-3.2,20.7v73.7h-17.4v-73.7c0-8.1-1.1-15-3.2-20.7-2.1-5.7-5-10.4-8.6-14-3.6-3.6-7.9-6.2-12.8-7.9-4.9-1.7-10.2-2.5-15.8-2.5s-11.1.8-15.9,2.4c-4.8,1.6-9,4.1-12.6,7.6-3.6,3.5-6.4,8-8.3,13.4-1.9,5.4-2.9,12-2.9,19.8v75.6h-17.4v-83.8c0-8.3,1.4-15.5,4.2-21.7,2.8-6.2,6.7-11.5,11.7-15.7s10.9-7.4,17.6-9.5c6.8-2.1,14.1-3.2,22-3.2,11.2,0,21.3,2.3,30.3,6.8,9,4.6,16,11.6,21.1,21.1,5.1-9.1,12.1-16.1,20.9-20.8,8.9-4.7,18.7-7.1,29.6-7.1s14.9,1,21.6,3c6.7,2,12.5,5.1,17.4,9.2,4.9,4.1,8.8,9.3,11.6,15.4,2.8,6.1,4.2,13.3,4.2,21.6v84.5h-17.4Z"/>
          <path class="cls-5" d="M817.8,195.5c0,9.5-1.8,18.4-5.3,26.7-3.5,8.3-8.4,15.6-14.6,21.9-6.2,6.2-13.7,11.2-22.3,14.8-8.6,3.6-18,5.4-28.2,5.4s-19.6-1.8-28.2-5.4c-8.6-3.6-16-8.5-22.3-14.8-6.2-6.2-11.1-13.5-14.6-21.9-3.5-8.3-5.3-17.3-5.3-26.7s1.8-18.7,5.3-27c3.5-8.3,8.4-15.6,14.6-21.9,6.2-6.2,13.7-11.1,22.3-14.6,8.6-3.5,18-5.3,28.2-5.3s19.6,1.8,28.2,5.3c8.6,3.5,16,8.4,22.3,14.6,6.2,6.2,11.1,13.5,14.6,21.9,3.5,8.3,5.3,17.3,5.3,27ZM799.1,195.5c0-7.5-1.2-14.6-3.7-21.2-2.5-6.6-6-12.3-10.5-17.3-4.6-4.9-10-8.7-16.3-11.5-6.3-2.7-13.3-4.1-21.1-4.1s-14.8,1.4-21.1,4.1c-6.3,2.7-11.8,6.5-16.3,11.5-4.6,4.9-8.1,10.7-10.5,17.3-2.5,6.6-3.7,13.7-3.7,21.2s1.3,14.4,3.8,20.9c2.5,6.6,6.1,12.3,10.5,17.1,4.5,4.8,9.9,8.7,16.2,11.5,6.3,2.8,13.3,4.2,21.1,4.2s14.8-1.4,21.1-4.2c6.3-2.8,11.8-6.6,16.3-11.5,4.6-4.8,8.1-10.5,10.5-17.1,2.5-6.6,3.7-13.6,3.7-20.9Z"/>
          <path class="cls-5" d="M960.8,75.4c0-2.6.7-4.8,2.2-6.5,1.5-1.7,3.9-2.5,7.2-2.5s3.1.2,4.6.7c1.5.4,2.6.8,3.3,1.2v120.9c0,4.2-.1,7.9-.4,11.2-.3,3.3-.6,6.1-.9,8.6-1.6,8.6-4.3,16.3-8.2,23.2-3.9,6.8-8.7,12.6-14.5,17.4-5.8,4.7-12.5,8.4-20,10.9-7.6,2.5-15.7,3.8-24.5,3.8s-19.8-1.8-28.3-5.4c-8.5-3.6-15.8-8.5-22-14.8-6.1-6.2-10.9-13.5-14.4-21.9-3.4-8.3-5.1-17.3-5.1-26.7s1.7-18.7,5.1-27c3.4-8.3,8.2-15.6,14.4-21.9,6.1-6.2,13.5-11.1,22-14.6,8.5-3.5,18-5.3,28.3-5.3s21.7,2.3,30.3,6.8c8.6,4.6,15.5,10.8,20.8,18.7v-76.9ZM858.6,195.5c0,7.4,1.2,14.4,3.6,20.9,2.4,6.6,5.8,12.3,10.3,17.1,4.5,4.8,9.8,8.7,16.1,11.5,6.2,2.8,13.3,4.2,21.2,4.2s14.5-1.3,20.8-4c6.3-2.6,11.7-6.3,16.1-11.1,4.4-4.7,7.8-10.4,10.3-16.9,2.5-6.5,3.7-13.6,3.7-21.3s-1.3-14.7-3.8-21.3c-2.5-6.7-6.1-12.5-10.5-17.4-4.5-4.9-9.8-8.8-16.1-11.6-6.2-2.8-13-4.2-20.4-4.2s-15,1.4-21.2,4.1c-6.2,2.7-11.6,6.5-16.1,11.5-4.5,4.9-7.9,10.7-10.3,17.3-2.4,6.6-3.6,13.7-3.6,21.2Z"/>
          <path class="cls-5" d="M1123.3,75.4c0-2.6.7-4.8,2.2-6.5,1.5-1.7,3.9-2.5,7.2-2.5s3.1.2,4.6.7c1.5.4,2.6.8,3.3,1.2v120.9c0,4.2-.1,7.9-.4,11.2-.3,3.3-.6,6.1-.9,8.6-1.6,8.6-4.3,16.3-8.2,23.2-3.9,6.8-8.7,12.6-14.5,17.4-5.8,4.7-12.5,8.4-20,10.9-7.6,2.5-15.7,3.8-24.5,3.8s-19.8-1.8-28.3-5.4c-8.5-3.6-15.8-8.5-22-14.8-6.1-6.2-10.9-13.5-14.4-21.9-3.4-8.3-5.1-17.3-5.1-26.7s1.7-18.7,5.1-27c3.4-8.3,8.2-15.6,14.4-21.9,6.1-6.2,13.5-11.1,22-14.6,8.5-3.5,18-5.3,28.3-5.3s21.7,2.3,30.3,6.8c8.6,4.6,15.5,10.8,20.8,18.7v-76.9ZM1021.1,195.5c0,7.4,1.2,14.4,3.6,20.9,2.4,6.6,5.8,12.3,10.3,17.1,4.5,4.8,9.8,8.7,16.1,11.5,6.2,2.8,13.3,4.2,21.2,4.2s14.5-1.3,20.8-4c6.3-2.6,11.7-6.3,16.1-11.1,4.4-4.7,7.8-10.4,10.3-16.9,2.5-6.5,3.7-13.6,3.7-21.3s-1.3-14.7-3.8-21.3c-2.5-6.7-6.1-12.5-10.5-17.4-4.5-4.9-9.8-8.8-16.1-11.6-6.2-2.8-13-4.2-20.4-4.2s-15,1.4-21.2,4.1c-6.2,2.7-11.6,6.5-16.1,11.5-4.5,4.9-7.9,10.7-10.3,17.3-2.4,6.6-3.6,13.7-3.6,21.2Z"/>
          <path class="cls-5" d="M1292.7,251.1c0,11.4-1.6,21.2-4.7,29.4-3.2,8.2-7.6,14.9-13.4,20.1-5.8,5.3-12.8,9.1-20.9,11.6-8.2,2.5-17.3,3.7-27.5,3.7s-24.1-1.1-32.8-3.3c-8.7-2.2-14.8-4-18.3-5.4l5-13.7c3.5,1.4,9.1,3,16.9,4.9,7.7,1.8,17.4,2.8,29,2.8s12.8-.7,18.8-2.1c6.1-1.4,11.4-3.9,15.9-7.4,4.6-3.5,8.2-8.3,10.9-14.5,2.7-6.1,4.1-13.9,4.1-23.2v-12.1c-3.3,6.7-9.1,12.1-17.3,16.2-8.2,4.1-17.8,6.2-28.8,6.2-19.1,0-33.8-5-44-15-10.2-10-15.3-23.6-15.3-40.8v-69c0-2.6.7-4.8,2.2-6.5,1.5-1.7,3.9-2.5,7.2-2.5s3.1.2,4.6.7c1.5.4,2.6.8,3.3,1.2v72.4c0,14,3.4,25,10.3,32.8,6.8,7.8,17.6,11.7,32.4,11.7s26.6-4.2,34-12.6c7.4-8.4,11.1-19.9,11.1-34.5v-62.7c0-2.6.7-4.8,2.2-6.5,1.5-1.7,3.9-2.5,7.2-2.5s3.1.2,4.6.7c1.5.4,2.6.8,3.3,1.2v118.8Z"/>
        </g>
      </g>
    </g>
  </g>
</svg>