<svg width="68" height="68" viewBox="0 0 68 68" fill="none" xmlns="http://www.w3.org/2000/svg">
<g filter="url(#filter0_d_403_1525)">
<path d="M34 16C36.7689 16 39.4757 16.8211 41.778 18.3594C44.0803 19.8978 45.8747 22.0843 46.9343 24.6424C47.9939 27.2006 48.2712 30.0155 47.731 32.7313C47.1908 35.447 45.8574 37.9416 43.8995 39.8995C41.9416 41.8574 39.447 43.1908 36.7313 43.731C34.0155 44.2712 31.2006 43.9939 28.6424 42.9343C26.0843 41.8747 23.8978 40.0803 22.3594 37.778C20.8211 35.4757 20 32.7689 20 30C20 26.287 21.475 22.726 24.1005 20.1005C26.726 17.475 30.287 16 34 16V16Z" fill="white"/>
</g>
<path d="M38.2511 25.2979C37.8325 24.5666 37.2314 23.9565 36.5064 23.5272C35.7814 23.0979 34.9574 22.8641 34.115 22.8486C34.042 22.8486 33.9677 22.8486 33.8947 22.8486C33.0523 22.8641 32.2283 23.0979 31.5033 23.5272C30.7783 23.9565 30.1772 24.5666 29.7586 25.2979C29.3212 26.042 29.0852 26.8871 29.0737 27.7502C29.0622 28.6132 29.2756 29.4644 29.693 30.2199L33.2499 36.7099V36.7186C33.326 36.8502 33.4353 36.9594 33.567 37.0353C33.6986 37.1113 33.8479 37.1513 33.9999 37.1513C34.1519 37.1513 34.3012 37.1113 34.4328 37.0353C34.5645 36.9594 34.6738 36.8502 34.7499 36.7186V36.7099L38.3068 30.2162C38.7242 29.4607 38.9376 28.6095 38.9261 27.7465C38.9146 26.8834 38.6786 26.0383 38.2412 25.2942L38.2511 25.2979ZM34.0049 29.3313C33.6071 29.3303 33.2185 29.2114 32.8882 28.9897C32.5579 28.768 32.3008 28.4534 32.1492 28.0856C31.9977 27.7178 31.9585 27.3133 32.0367 26.9233C32.1149 26.5332 32.307 26.1751 32.5886 25.8942C32.8702 25.6133 33.2288 25.4221 33.619 25.3448C34.0092 25.2676 34.4136 25.3077 34.781 25.4602C35.1485 25.6127 35.4624 25.8706 35.6834 26.2014C35.9043 26.5322 36.0222 26.9211 36.0222 27.3189C36.0208 27.8531 35.8077 28.3649 35.4296 28.7422C35.0514 29.1194 34.539 29.3313 34.0049 29.3313Z" fill="#2E4E78"/>
<defs>
<filter id="filter0_d_403_1525" x="0" y="0" width="68" height="68" filterUnits="userSpaceOnUse" color-interpolation-filters="sRGB">
<feFlood flood-opacity="0" result="BackgroundImageFix"/>
<feColorMatrix in="SourceAlpha" type="matrix" values="0 0 0 0 0 0 0 0 0 0 0 0 0 0 0 0 0 0 127 0" result="hardAlpha"/>
<feOffset dy="4"/>
<feGaussianBlur stdDeviation="10"/>
<feColorMatrix type="matrix" values="0 0 0 0 0.203922 0 0 0 0 0.329412 0 0 0 0 0.419608 0 0 0 0.12 0"/>
<feBlend mode="normal" in2="BackgroundImageFix" result="effect1_dropShadow_403_1525"/>
<feBlend mode="normal" in="SourceGraphic" in2="effect1_dropShadow_403_1525" result="shape"/>
</filter>
</defs>
</svg>