<svg width="21" height="16" viewBox="0 0 21 16" fill="none" xmlns="http://www.w3.org/2000/svg">
<g clip-path="url(#clip0_2_510)">
<path d="M13.9127 15.3458C12.9204 15.1587 12.072 14.8648 11.259 14.5053C9.59805 13.7708 8.17109 12.8149 6.88057 11.7325C5.10457 10.2431 3.66943 8.58519 2.66882 6.71698C2.14192 5.7336 1.78435 4.71886 1.69968 3.6555C1.67388 3.33481 1.76115 3.07315 2.0453 2.83225C3.00391 2.01896 4.02877 1.2627 5.19808 0.628081C5.32383 0.559745 5.45914 0.500409 5.5972 0.448091C5.87621 0.342499 6.05488 0.371012 6.26394 0.556666C6.35738 0.639702 6.44535 0.729731 6.51262 0.82599C7.19782 1.80672 7.81757 2.80999 8.27623 3.86567C8.51654 4.41801 8.46719 4.51333 7.85172 4.83664C7.41947 5.06403 6.98633 5.29006 6.55075 5.51416C6.44827 5.56686 6.42053 5.62534 6.44166 5.7222C6.75855 7.16082 7.59311 8.40797 8.87717 9.48255C9.75032 10.2135 10.7642 10.8011 11.9526 11.1998C12.0928 11.247 12.1879 11.2381 12.2959 11.1641C12.6517 10.9207 13.0158 10.6836 13.3716 10.4401C14.0139 10.0006 14.1351 9.98647 14.868 10.3569C16.0401 10.9494 17.1231 11.6319 18.148 12.367C18.7418 12.793 18.7368 13.0015 18.1351 13.3915C16.9792 14.1407 15.7044 14.7524 14.336 15.2499C14.1843 15.305 14.0092 15.3244 13.9127 15.3458Z" fill="#006EB7"/>
<path d="M19.2963 8.34181C18.868 8.29665 18.4532 8.25292 18.018 8.20702C18.2053 6.71601 17.7377 5.3515 16.5283 4.14937C15.3174 2.94582 13.7159 2.2487 11.7651 2.00766C11.8155 1.68324 11.8655 1.36129 11.9156 1.03935C16.0606 1.3742 19.8765 4.51081 19.2963 8.34181Z" fill="#006EB7"/>
<path d="M16.0559 7.99927C15.6265 7.95401 15.2118 7.91027 14.7975 7.86659C15.0148 6.25045 13.5589 4.75399 11.3789 4.48123C11.4289 4.1597 11.4789 3.83775 11.529 3.51581C14.2053 3.72398 16.4552 5.79036 16.0559 7.99927Z" fill="#006EB7"/>
</g>
<defs>
<clipPath id="clip0_2_510">
<rect width="18.1663" height="14.0535" fill="white" transform="matrix(0.994487 0.104858 -0.153613 0.988131 2.23486 0)"/>
</clipPath>
</defs>
</svg>
