<svg width="70" height="70" viewBox="0 0 70 70" fill="none" xmlns="http://www.w3.org/2000/svg">
<path fill-rule="evenodd" clip-rule="evenodd" d="M0 35.0203C0 15.7019 15.7095 0 35 0C54.2905 0 70 15.7019 70 35.0203C70 54.2981 54.2905 70 35 70C15.7095 70 0 54.2981 0 35.0203ZM47.8378 38.5625C48.2095 38.191 48.6824 37.617 48.7838 37.4819C49.3243 36.7728 49.5946 35.8948 49.5946 35.0203C49.5946 34.0376 49.2905 33.1259 48.7162 32.383C48.6691 32.336 48.577 32.2356 48.4568 32.1049C48.2321 31.8603 47.9096 31.5092 47.6013 31.2012C44.8311 28.2296 37.6013 23.3671 33.8176 21.8813C33.2432 21.6483 31.7905 21.1384 31.0135 21.1047C30.2703 21.1047 29.5608 21.2735 28.8851 21.6112C28.0405 22.0839 27.3649 22.8268 26.9932 23.7048C26.7568 24.3126 26.3851 26.136 26.3851 26.1698C26.0135 28.1621 25.8108 31.4038 25.8108 34.9831C25.8108 38.397 26.0135 41.5002 26.3176 43.5263C26.3259 43.5346 26.355 43.6796 26.4001 43.9047C26.5374 44.589 26.8233 46.0147 27.1284 46.5991C27.8716 48.0174 29.3243 48.8953 30.8784 48.8953H31.0135C32.027 48.8616 34.1554 47.9836 34.1554 47.9498C37.7365 46.4641 44.7973 41.8379 47.6351 38.7651L47.8378 38.5625Z" fill="white"/>
</svg>
