<svg width="170" height="171" viewBox="0 0 170 171" fill="none" xmlns="http://www.w3.org/2000/svg">
<g clip-path="url(#clip0_2672_1113)">
<path d="M70.8307 116.888L113.331 85.013L70.8307 53.138V116.888ZM84.9974 14.1797C45.8974 14.1797 14.1641 45.913 14.1641 85.013C14.1641 124.113 45.8974 155.846 84.9974 155.846C124.097 155.846 155.831 124.113 155.831 85.013C155.831 45.913 124.097 14.1797 84.9974 14.1797ZM84.9974 141.68C53.7599 141.68 28.3307 116.251 28.3307 85.013C28.3307 53.7755 53.7599 28.3464 84.9974 28.3464C116.235 28.3464 141.664 53.7755 141.664 85.013C141.664 116.251 116.235 141.68 84.9974 141.68Z" fill="black"/>
</g>
<defs>
<clipPath id="clip0_2672_1113">
<rect width="170" height="170" fill="white" transform="translate(0 0.0117188)"/>
</clipPath>
</defs>
</svg>
