<svg width="85" height="66" viewBox="0 0 85 66" fill="none" xmlns="http://www.w3.org/2000/svg">
<path d="M34.0255 59.6303C30.1599 63.1972 25.3598 65.0015 19.5827 65.0015C14.4428 65.0015 9.85507 62.6936 5.86207 58.0358C1.95402 53.6717 0 48.9299 0 43.8105C0 28.8718 10.4073 14.4367 31.2644 0.505102C32.029 0.00155077 33.8556 -0.418075 34.96 0.756877L36.9565 3.27463C37.9335 4.91117 36.7441 6.42182 35.9795 7.0093C32.3688 9.98864 29.7351 12.2966 28.1209 13.8912C24.8926 17.2482 22.5137 20.6052 20.942 23.9202C20.6022 24.6755 21.4943 25.1791 21.9615 25.305C33.8556 29.1655 39.8026 35.9215 39.8026 45.6568C39.8026 51.4057 37.8486 56.0635 34.0255 59.6303Z" fill="url(#paint0_linear_573_160)" fill-opacity="0.12"/>
<path d="M79.2232 59.6303C75.3577 63.1972 70.5576 65.0015 64.7805 65.0015C59.6405 65.0015 55.0528 62.6936 51.0598 58.0358C47.1518 53.6717 45.2402 48.9299 45.2402 43.8105C45.2402 28.8718 55.6475 14.4367 76.5046 0.505102C77.2267 0.00155077 79.0958 -0.418075 80.2003 0.756877L82.1968 3.23267C83.1738 4.86921 81.9844 6.37986 81.2197 6.96734C77.6091 9.94668 74.9754 12.2127 73.3187 13.8492C70.0903 17.2062 67.7115 20.5632 66.1398 23.8782C65.8 24.6336 66.692 25.1371 67.1593 25.263C79.0533 29.1236 85.0004 35.8795 85.0004 45.6148C85.0004 51.4057 83.0888 56.0635 79.2232 59.6303Z" fill="url(#paint1_linear_573_160)" fill-opacity="0.12"/>
<defs>
<linearGradient id="paint0_linear_573_160" x1="36.4237" y1="52.8522" x2="-5.36896" y2="48.1966" gradientUnits="userSpaceOnUse">
<stop stop-color="#3198FC"/>
<stop offset="1" stop-color="#0C49E2"/>
</linearGradient>
<linearGradient id="paint1_linear_573_160" x1="81.6251" y1="52.8522" x2="39.8759" y2="48.2064" gradientUnits="userSpaceOnUse">
<stop stop-color="#3198FC"/>
<stop offset="1" stop-color="#0C49E2"/>
</linearGradient>
</defs>
</svg>