<svg width="178" height="180" viewBox="0 0 178 180" fill="none" xmlns="http://www.w3.org/2000/svg">
<path d="M0 0H157C164.18 0 170 5.8203 170 13H0V0Z" fill="#252022"/>
<path d="M0 0H158C169.046 0 178 8.95431 178 20V180L0 0Z" fill="#2F92FA"/>
<path d="M72.0708 17.0982L81.2274 7.74261L84.7358 11.1763C85.4545 11.8798 85.9353 12.5948 86.1782 13.3215C86.4241 14.0511 86.4513 14.7635 86.2599 15.4586C86.0745 16.1537 85.6897 16.7997 85.1055 17.3966C84.5183 17.9965 83.8807 18.3921 83.1927 18.5833C82.5107 18.7745 81.8053 18.7489 81.0765 18.5066C80.3506 18.2613 79.6283 17.7869 78.9096 17.0835L76.4108 14.6378L77.7879 13.2308L80.0583 15.4529C80.4785 15.8643 80.8793 16.1432 81.2606 16.2898C81.6448 16.4333 82.0112 16.455 82.3596 16.3548C82.7142 16.2546 83.0539 16.0385 83.3787 15.7065C83.7036 15.3746 83.9154 15.0273 84.0139 14.6646C84.1155 14.2989 84.0918 13.924 83.9431 13.5399C83.7973 13.1527 83.5127 12.7519 83.0894 12.3376L81.5362 10.8175L73.7656 18.757L72.0708 17.0982ZM81.053 17.5893L79.22 24.0954L77.3288 22.2444L79.2029 15.7785L81.053 17.5893ZM83.2361 28.2943C82.5326 27.6058 82.0681 26.865 81.8426 26.0719C81.6231 25.2787 81.6401 24.4784 81.8936 23.6711C82.1501 22.8608 82.6375 22.0886 83.3558 21.3547C84.0623 20.6329 84.8193 20.1336 85.6269 19.8567C86.4406 19.5798 87.2446 19.5319 88.0391 19.7132C88.8366 19.8915 89.5703 20.3085 90.2403 20.9643C90.6728 21.3875 91.0123 21.857 91.2589 22.3726C91.5116 22.8882 91.644 23.4352 91.6562 24.0137C91.6715 24.5951 91.5454 25.1931 91.2778 25.8077C91.0131 26.4193 90.5798 27.0326 89.9777 27.6478L89.4814 28.1549L83.73 22.5259L84.821 21.4112L88.9871 25.4888C89.2941 25.1691 89.5013 24.8203 89.6087 24.4425C89.7191 24.0616 89.7241 23.6819 89.6236 23.3033C89.5261 22.9276 89.319 22.5848 89.0023 22.2748C88.6643 21.944 88.2869 21.7356 87.8701 21.6497C87.4563 21.5607 87.0482 21.5787 86.6457 21.7035C86.2493 21.8283 85.896 22.0461 85.586 22.3568L84.6337 23.3298C84.2343 23.7379 83.9661 24.1611 83.8292 24.5995C83.6952 25.0349 83.6863 25.4614 83.8022 25.879C83.9212 26.2936 84.1604 26.6767 84.5197 27.0285C84.7603 27.2639 85.0109 27.4436 85.2713 27.5673C85.5348 27.688 85.8037 27.7514 86.078 27.7575C86.3523 27.7636 86.6228 27.7035 86.8897 27.5771L88.2638 29.2618C87.7669 29.5746 87.2324 29.7491 86.6603 29.7853C86.0941 29.8216 85.5174 29.7163 84.9302 29.4694C84.3459 29.2196 83.7812 28.8279 83.2361 28.2943ZM90.8158 35.7129C90.1154 35.0273 89.6644 34.2848 89.463 33.4854C89.2646 32.689 89.2951 31.8871 89.5546 31.0797C89.8202 30.2723 90.3002 29.5138 90.9947 28.8042C91.6922 28.0916 92.4447 27.5968 93.2523 27.3199C94.063 27.04 94.867 26.9922 95.6646 27.1765C96.4681 27.3607 97.2125 27.7881 97.8977 28.4588C98.4672 29.0162 98.8684 29.6146 99.1013 30.2539C99.3402 30.8932 99.4043 31.5314 99.2936 32.1684C99.1859 32.8023 98.903 33.39 98.4447 33.9313L96.8641 32.3843C97.131 31.9837 97.2545 31.553 97.2344 31.0921C97.2204 30.6312 97.014 30.2055 96.615 29.8151C96.277 29.4842 95.8906 29.285 95.456 29.2173C95.0243 29.1466 94.5714 29.2102 94.0975 29.4082C93.6265 29.6091 93.16 29.9456 92.698 30.4177C92.2301 30.8958 91.8977 31.3755 91.701 31.8567C91.5072 32.3349 91.4459 32.7906 91.5168 33.2238C91.5938 33.6569 91.8043 34.0419 92.1485 34.3787C92.3921 34.6171 92.6546 34.7846 92.9359 34.881C93.2232 34.9773 93.5187 35.0013 93.8226 34.9528C94.1264 34.9043 94.4264 34.7776 94.7225 34.5725L96.3031 36.1195C95.7777 36.5771 95.2008 36.8741 94.5724 37.0104C93.9471 37.1437 93.3108 37.1054 92.6637 36.8954C92.0196 36.6823 91.4036 36.2881 90.8158 35.7129ZM98.2403 42.9794C97.555 42.3087 97.1087 41.5768 96.9013 40.7834C96.6939 39.9901 96.7169 39.1868 96.9703 38.3735C97.2268 37.5631 97.7097 36.7955 98.4191 36.0707C99.1285 35.3459 99.887 34.8451 100.695 34.5682C101.505 34.2943 102.309 34.2525 103.107 34.4428C103.905 34.6331 104.646 35.0636 105.331 35.7343C106.017 36.4049 106.463 37.1369 106.67 37.9302C106.878 38.7235 106.852 39.5269 106.592 40.3403C106.336 41.1566 105.853 41.9272 105.143 42.6521C104.434 43.3769 103.676 43.8747 102.868 44.1456C102.063 44.4194 101.262 44.4612 100.464 44.2708C99.6669 44.0805 98.9255 43.65 98.2403 42.9794ZM99.546 41.6636C99.9175 42.0272 100.328 42.2292 100.777 42.2696C101.23 42.3069 101.687 42.2116 102.148 41.9836C102.613 41.7587 103.054 41.433 103.471 41.0066C103.892 40.5772 104.209 40.1278 104.424 39.6584C104.645 39.189 104.732 38.7285 104.685 38.277C104.638 37.8255 104.429 37.4179 104.057 37.0543C103.677 36.6817 103.258 36.4752 102.803 36.4349C102.351 36.3976 101.891 36.493 101.423 36.721C100.961 36.9489 100.52 37.2776 100.1 37.707C99.6828 38.1334 99.3652 38.5798 99.1472 39.0462C98.9323 39.5156 98.8483 39.976 98.8954 40.4275C98.9484 40.879 99.1653 41.291 99.546 41.6636ZM103.14 47.5067L110.008 40.49L111.588 42.037L110.421 43.2293L110.503 43.3098C111.043 43.0508 111.592 42.9741 112.151 43.0796C112.712 43.182 113.228 43.4628 113.697 43.9218C114.172 44.3868 114.459 44.8945 114.558 45.4449C114.664 45.9952 114.59 46.5339 114.336 47.0609L114.409 47.1325C114.946 46.8947 115.512 46.8404 116.107 46.9696C116.708 47.0987 117.263 47.4122 117.772 47.91C118.417 48.5419 118.744 49.2616 118.753 50.0691C118.762 50.8766 118.383 51.6717 117.617 52.4543L113.007 57.1641L111.349 55.5411L115.708 51.0872C116.135 50.6517 116.33 50.2202 116.296 49.7926C116.264 49.3621 116.081 48.9828 115.746 48.655C115.347 48.2645 114.912 48.0838 114.442 48.113C113.979 48.1421 113.553 48.3546 113.166 48.7505L108.882 53.1268L107.261 51.5396L111.687 47.0171C112.042 46.6547 112.215 46.2581 112.208 45.8272C112.203 45.3994 112.026 45.0141 111.675 44.6713C111.438 44.4388 111.162 44.2881 110.848 44.2191C110.537 44.1471 110.216 44.1641 109.886 44.2701C109.558 44.3731 109.253 44.5692 108.97 44.8586L104.794 49.1252L103.14 47.5067ZM114.685 58.8061L121.553 51.7894L123.133 53.3364L121.966 54.5287L122.048 54.6091C122.588 54.3502 123.137 54.2735 123.696 54.379C124.257 54.4814 124.773 54.7622 125.242 55.2212C125.717 55.6862 126.004 56.1939 126.103 56.7442C126.209 57.2946 126.135 57.8333 125.881 58.3603L125.954 58.4318C126.491 58.194 127.057 58.1397 127.652 58.269C128.253 58.3981 128.808 58.7116 129.317 59.2093C129.962 59.8412 130.289 60.5609 130.298 61.3684C130.307 62.1759 129.928 62.971 129.162 63.7537L124.552 68.4635L122.894 66.8405L127.253 62.3865C127.68 61.951 127.875 61.5195 127.841 61.092C127.809 60.6614 127.625 60.2822 127.29 59.9543C126.892 59.5639 126.457 59.3832 125.987 59.4124C125.524 59.4414 125.098 59.654 124.711 60.0499L120.427 64.4262L118.806 62.839L123.232 58.3165C123.587 57.9541 123.76 57.5574 123.752 57.1266C123.748 56.6987 123.57 56.3134 123.22 55.9706C122.983 55.7382 122.707 55.5874 122.393 55.5185C122.082 55.4465 121.761 55.4635 121.43 55.5695C121.103 55.6725 120.798 55.8686 120.515 56.1579L116.339 60.4246L114.685 58.8061ZM129.202 73.2828C128.499 72.5943 128.034 71.8535 127.809 71.0603C127.589 70.2672 127.606 69.4669 127.86 68.6596C128.116 67.8493 128.604 67.0771 129.322 66.3431C130.028 65.6214 130.785 65.1221 131.593 64.8452C132.407 64.5682 133.211 64.5204 134.005 64.7017C134.803 64.88 135.536 65.297 136.206 65.9527C136.639 66.376 136.978 66.8454 137.225 67.3611C137.478 67.8767 137.61 68.4237 137.622 69.0022C137.638 69.5836 137.512 70.1816 137.244 70.7962C136.979 71.4077 136.546 72.0211 135.944 72.6363L135.448 73.1434L129.696 67.5144L130.787 66.3997L134.953 70.4773C135.26 70.1576 135.467 69.8088 135.575 69.431C135.685 69.0501 135.69 68.6704 135.59 68.2917C135.492 67.9161 135.285 67.5733 134.968 67.2633C134.63 66.9325 134.253 66.7241 133.836 66.6382C133.422 66.5492 133.014 66.5671 132.612 66.692C132.215 66.8168 131.862 67.0345 131.552 67.3452L130.6 68.3183C130.2 68.7264 129.932 69.1496 129.795 69.588C129.661 70.0234 129.652 70.4499 129.768 70.8675C129.887 71.2821 130.127 71.6652 130.486 72.0169C130.726 72.2524 130.977 72.432 131.238 72.5558C131.501 72.6765 131.77 72.7399 132.044 72.746C132.318 72.7521 132.589 72.6919 132.856 72.5655L134.23 74.2503C133.733 74.563 133.199 74.7375 132.626 74.7738C132.06 74.81 131.484 74.7047 130.896 74.4579C130.312 74.2081 129.747 73.8164 129.202 73.2828ZM139.533 75.0759L135.509 79.1872L133.855 77.5687L140.723 70.552L142.304 72.099L141.137 73.2913L141.219 73.3717C141.765 73.1369 142.328 73.0766 142.907 73.1909C143.49 73.3082 144.044 73.6231 144.567 74.1358C145.052 74.6097 145.372 75.1261 145.529 75.6849C145.688 76.2467 145.675 76.8209 145.488 77.4075C145.305 77.9971 144.937 78.5706 144.386 79.128L140.013 83.5957L138.36 81.9771L142.482 77.7653C142.941 77.2963 143.178 76.8101 143.194 76.3067C143.213 75.8062 143.009 75.3474 142.583 74.9301C142.293 74.6469 141.973 74.459 141.623 74.3664C141.278 74.2736 140.926 74.2834 140.565 74.3958C140.208 74.5111 139.864 74.7378 139.533 75.0759ZM144.178 87.9128C143.626 87.3733 143.272 86.7488 143.113 86.0394C142.955 85.3299 143.013 84.5819 143.288 83.7955C143.563 83.0091 144.077 82.2306 144.831 81.4601C145.594 80.6805 146.366 80.1478 147.147 79.8622C147.933 79.5765 148.68 79.5112 149.387 79.6664C150.096 79.8184 150.721 80.1583 151.26 80.6859C151.671 81.0882 151.94 81.4891 152.068 81.8886C152.199 82.2849 152.247 82.6566 152.211 83.0035C152.179 83.3474 152.122 83.6463 152.04 83.9003L152.109 83.9674L155.533 80.4681L157.192 82.0911L148.035 91.4468L146.409 89.8551L147.491 88.7496L147.39 88.6512C147.138 88.7383 146.837 88.7988 146.488 88.8327C146.142 88.8635 145.771 88.8163 145.375 88.691C144.979 88.5656 144.58 88.3063 144.178 87.9128ZM145.967 87.0076C146.317 87.3504 146.708 87.5481 147.139 87.6007C147.574 87.6503 148.022 87.5671 148.484 87.3512C148.945 87.1353 149.398 86.8005 149.843 86.3467C150.287 85.8929 150.609 85.436 150.809 84.9758C151.012 84.5186 151.081 84.0764 151.016 83.6492C150.954 83.2249 150.745 82.8384 150.389 82.4897C150.02 82.129 149.619 81.9239 149.184 81.8744C148.75 81.8248 148.305 81.9079 147.849 82.1238C147.393 82.3396 146.952 82.6653 146.526 83.1008C146.097 83.5393 145.776 83.9917 145.564 84.4581C145.358 84.9244 145.282 85.3772 145.335 85.8166C145.394 86.2559 145.604 86.6529 145.967 87.0076ZM152.769 96.3488C152.066 95.6603 151.601 94.9194 151.376 94.1263C151.157 93.3331 151.174 92.5329 151.427 91.7256C151.683 90.9152 152.171 90.1431 152.889 89.4091C153.596 88.6873 154.353 88.188 155.16 87.9111C155.974 87.6342 156.778 87.5864 157.573 87.7677C158.37 87.946 159.104 88.363 159.774 89.0187C160.206 89.442 160.546 89.9114 160.792 90.4271C161.045 90.9427 161.177 91.4897 161.19 92.0681C161.205 92.6496 161.079 93.2476 160.811 93.8622C160.547 94.4737 160.113 95.0871 159.511 95.7023L159.015 96.2093L153.263 90.5803L154.354 89.4657L158.521 93.5433C158.827 93.2235 159.035 92.8748 159.142 92.4969C159.253 92.1161 159.257 91.7363 159.157 91.3577C159.06 90.9821 158.852 90.6393 158.536 90.3293C158.198 89.9984 157.82 89.79 157.403 89.7041C156.99 89.6152 156.582 89.6331 156.179 89.758C155.783 89.8828 155.429 90.1005 155.119 90.4112L154.167 91.3842C153.768 91.7923 153.499 92.2156 153.363 92.654C153.229 93.0894 153.22 93.5159 153.336 93.9335C153.455 94.3481 153.694 94.7312 154.053 95.0829C154.294 95.3184 154.544 95.498 154.805 95.6218C155.068 95.7425 155.337 95.8059 155.611 95.812C155.886 95.8181 156.156 95.7579 156.423 95.6315L157.797 97.3163C157.3 97.629 156.766 97.8035 156.194 97.8398C155.628 97.876 155.051 97.7707 154.464 97.5239C153.879 97.274 153.315 96.8823 152.769 96.3488ZM159.906 103.307C159.355 102.767 159 102.143 158.842 101.433C158.683 100.724 158.741 99.9756 159.016 99.1892C159.291 98.4028 159.806 97.6243 160.56 96.8538C161.323 96.0742 162.094 95.5415 162.875 95.2559C163.661 94.9702 164.408 94.9049 165.115 95.0601C165.825 95.2121 166.449 95.552 166.988 96.0796C167.399 96.482 167.669 96.8829 167.796 97.2823C167.927 97.6786 167.975 98.0503 167.94 98.3972C167.907 98.7411 167.85 99.04 167.768 99.294L167.837 99.3611L171.262 95.8619L172.92 97.4848L163.763 106.84L162.137 105.249L163.219 104.143L163.119 104.045C162.866 104.132 162.566 104.192 162.216 104.226C161.87 104.257 161.499 104.21 161.103 104.085C160.707 103.959 160.308 103.7 159.906 103.307ZM161.695 102.401C162.045 102.744 162.436 102.942 162.868 102.994C163.302 103.044 163.75 102.961 164.212 102.745C164.674 102.529 165.127 102.194 165.571 101.74C166.015 101.287 166.337 100.83 166.537 100.369C166.74 99.9123 166.809 99.4701 166.744 99.0429C166.682 98.6186 166.473 98.2321 166.117 97.8834C165.748 97.5227 165.347 97.3176 164.912 97.2681C164.478 97.2185 164.033 97.3016 163.577 97.5175C163.121 97.7333 162.681 98.059 162.254 98.4945C161.825 98.933 161.504 99.3855 161.293 99.8518C161.087 100.318 161.01 100.771 161.063 101.21C161.122 101.65 161.333 102.047 161.695 102.401Z" fill="white"/>
</svg>
