<svg width="82" height="34" viewBox="0 0 82 34" fill="none" xmlns="http://www.w3.org/2000/svg">
<mask id="path-1-inside-1_573_241" fill="white">
<path d="M77.6218 22.2236C78.0851 20.0851 78.4642 17.9046 78.9697 15.7661C79.3488 14.2147 80.0649 13.5018 80.9494 13.6696C81.8761 13.8373 82.1709 14.7179 81.834 16.3532C81.2021 19.4142 80.6124 22.5171 80.0649 25.5781C79.8121 26.878 79.7279 28.2198 79.6015 29.5616C79.5173 30.4421 79.3067 31.3227 78.38 31.7001C77.4954 32.0355 76.8215 31.5743 76.1897 31.0292C76.1475 30.9872 76.1054 30.9453 76.0212 30.9034C73.7887 29.2261 71.5142 27.5069 69.2817 25.8297C68.692 25.3684 68.0602 24.9911 67.5126 24.5298C66.965 24.0686 66.6702 23.4815 67.0914 22.7687C67.5968 21.972 68.3129 22.0139 69.029 22.4752C70.3347 23.2719 71.5984 24.1944 72.9042 24.9911C73.2411 25.2007 73.6624 25.2846 74.1678 25.4942C74.0836 25.0749 74.0836 24.8653 74.0415 24.6975C73.9151 24.404 73.7887 24.0686 73.6624 23.775C70.756 17.8208 66.628 12.8729 61.3628 8.93132C54.8761 4.06728 47.7154 3.52217 40.1756 6.20578C39.628 6.41544 39.1226 6.75089 38.4486 7.08634C38.912 7.84111 39.2911 8.42815 39.6702 9.05712C42.3238 13.4599 43.419 18.1982 42.5344 23.2719C41.9026 27.0038 40.0493 30.0228 36.6374 31.9097C32.5095 34.216 27.7076 32.9161 25.3488 28.8068C23.6218 25.7877 23.6218 22.559 24.38 19.2884C25.4752 14.7179 28.0025 11.0279 31.5828 7.9669C32.1304 7.50566 32.678 7.04441 33.3098 6.4993C32.9307 6.12192 32.6358 5.8284 32.341 5.61874C28.1709 2.85127 23.5797 2.34809 18.8621 3.81569C12.7123 5.74454 7.91042 9.72802 4.33007 15.1372C3.9931 15.6403 3.78249 16.1855 3.65613 16.7725C3.48764 17.5692 3.23491 18.1982 2.26611 18.1562C1.42368 18.1143 0.791853 17.2337 1.04458 16.2274C1.21307 15.3888 1.55004 14.5501 2.01338 13.8373C4.75129 9.22484 8.458 5.61874 13.1335 3.06093C20.8839 -1.13221 28.4658 -1.29994 35.7107 4.31887C35.8792 4.44466 36.0477 4.52853 36.3004 4.65432C36.6795 4.4866 37.1007 4.31887 37.522 4.10921C46.7045 0.125729 55.4658 0.796632 63.511 6.83475C68.8184 10.8182 72.9463 15.8919 76.0212 21.7623C76.3582 22.3913 76.6109 23.0203 77.1163 24.0266C77.3691 23.188 77.5376 22.7268 77.6218 22.2236ZM26.9915 22.9783C26.9494 24.2782 27.3285 25.662 27.7919 26.836C29.0134 29.7712 32.1304 30.8195 34.9525 29.4358C36.4268 28.7229 37.5641 27.5908 38.4065 26.2071C41.1865 21.4688 39.7965 12.5794 35.5001 8.67974C30.5719 12.202 27.2021 16.6886 26.9915 22.9783Z"/>
</mask>
<path d="M77.6218 22.2236C78.0851 20.0851 78.4642 17.9046 78.9697 15.7661C79.3488 14.2147 80.0649 13.5018 80.9494 13.6696C81.8761 13.8373 82.1709 14.7179 81.834 16.3532C81.2021 19.4142 80.6124 22.5171 80.0649 25.5781C79.8121 26.878 79.7279 28.2198 79.6015 29.5616C79.5173 30.4421 79.3067 31.3227 78.38 31.7001C77.4954 32.0355 76.8215 31.5743 76.1897 31.0292C76.1475 30.9872 76.1054 30.9453 76.0212 30.9034C73.7887 29.2261 71.5142 27.5069 69.2817 25.8297C68.692 25.3684 68.0602 24.9911 67.5126 24.5298C66.965 24.0686 66.6702 23.4815 67.0914 22.7687C67.5968 21.972 68.3129 22.0139 69.029 22.4752C70.3347 23.2719 71.5984 24.1944 72.9042 24.9911C73.2411 25.2007 73.6624 25.2846 74.1678 25.4942C74.0836 25.0749 74.0836 24.8653 74.0415 24.6975C73.9151 24.404 73.7887 24.0686 73.6624 23.775C70.756 17.8208 66.628 12.8729 61.3628 8.93132C54.8761 4.06728 47.7154 3.52217 40.1756 6.20578C39.628 6.41544 39.1226 6.75089 38.4486 7.08634C38.912 7.84111 39.2911 8.42815 39.6702 9.05712C42.3238 13.4599 43.419 18.1982 42.5344 23.2719C41.9026 27.0038 40.0493 30.0228 36.6374 31.9097C32.5095 34.216 27.7076 32.9161 25.3488 28.8068C23.6218 25.7877 23.6218 22.559 24.38 19.2884C25.4752 14.7179 28.0025 11.0279 31.5828 7.9669C32.1304 7.50566 32.678 7.04441 33.3098 6.4993C32.9307 6.12192 32.6358 5.8284 32.341 5.61874C28.1709 2.85127 23.5797 2.34809 18.8621 3.81569C12.7123 5.74454 7.91042 9.72802 4.33007 15.1372C3.9931 15.6403 3.78249 16.1855 3.65613 16.7725C3.48764 17.5692 3.23491 18.1982 2.26611 18.1562C1.42368 18.1143 0.791853 17.2337 1.04458 16.2274C1.21307 15.3888 1.55004 14.5501 2.01338 13.8373C4.75129 9.22484 8.458 5.61874 13.1335 3.06093C20.8839 -1.13221 28.4658 -1.29994 35.7107 4.31887C35.8792 4.44466 36.0477 4.52853 36.3004 4.65432C36.6795 4.4866 37.1007 4.31887 37.522 4.10921C46.7045 0.125729 55.4658 0.796632 63.511 6.83475C68.8184 10.8182 72.9463 15.8919 76.0212 21.7623C76.3582 22.3913 76.6109 23.0203 77.1163 24.0266C77.3691 23.188 77.5376 22.7268 77.6218 22.2236ZM26.9915 22.9783C26.9494 24.2782 27.3285 25.662 27.7919 26.836C29.0134 29.7712 32.1304 30.8195 34.9525 29.4358C36.4268 28.7229 37.5641 27.5908 38.4065 26.2071C41.1865 21.4688 39.7965 12.5794 35.5001 8.67974C30.5719 12.202 27.2021 16.6886 26.9915 22.9783Z" fill="#1350D3"/>
<path d="M77.6218 22.2236L77.2309 22.1389L77.2289 22.1482L77.2273 22.1575L77.6218 22.2236ZM78.9697 15.7661L78.5811 15.6712L78.5804 15.6741L78.9697 15.7661ZM80.9494 13.6696L80.8749 14.0626L80.8782 14.0632L80.9494 13.6696ZM81.834 16.3532L82.2257 16.434L82.2257 16.4339L81.834 16.3532ZM80.0649 25.5781L80.4576 25.6544L80.4586 25.6485L80.0649 25.5781ZM79.6015 29.5616L79.9997 29.5997L79.9998 29.5991L79.6015 29.5616ZM78.38 31.7001L78.5219 32.0742L78.5309 32.0705L78.38 31.7001ZM76.1897 31.0292L75.9075 31.3127L75.9176 31.3227L75.9284 31.332L76.1897 31.0292ZM76.0212 30.9034L75.7809 31.2232L75.8102 31.2452L75.8429 31.2615L76.0212 30.9034ZM69.2817 25.8297L69.0352 26.1448L69.0414 26.1495L69.2817 25.8297ZM67.0914 22.7687L66.7534 22.5543L66.747 22.5652L67.0914 22.7687ZM69.029 22.4752L68.8123 22.8115L68.8206 22.8166L69.029 22.4752ZM72.9042 24.9911L73.1155 24.6514L73.1125 24.6496L72.9042 24.9911ZM74.1678 25.4942L74.0146 25.8637L74.7078 26.1513L74.56 25.4154L74.1678 25.4942ZM74.0415 24.6975L74.4294 24.6001L74.4216 24.5689L74.4089 24.5394L74.0415 24.6975ZM73.6624 23.775L74.0298 23.6169L74.026 23.6081L74.0218 23.5996L73.6624 23.775ZM61.3628 8.93132L61.1229 9.25135L61.1231 9.25154L61.3628 8.93132ZM40.1756 6.20578L40.0415 5.82883L40.0326 5.83223L40.1756 6.20578ZM38.4486 7.08634L38.2704 6.72825L37.879 6.92305L38.1077 7.29561L38.4486 7.08634ZM39.6702 9.05712L39.3276 9.2636L39.6702 9.05712ZM42.5344 23.2719L42.1404 23.2032L42.14 23.2051L42.5344 23.2719ZM36.6374 31.9097L36.4438 31.5597L36.4423 31.5605L36.6374 31.9097ZM25.3488 28.8068L25.0016 29.0054L25.0019 29.0059L25.3488 28.8068ZM24.38 19.2884L23.991 19.1952L23.9903 19.198L24.38 19.2884ZM31.5828 7.9669L31.3251 7.66096L31.3229 7.66287L31.5828 7.9669ZM33.3098 6.4993L33.5711 6.80216L33.8978 6.52027L33.592 6.21582L33.3098 6.4993ZM32.341 5.61874L32.5729 5.29258L32.5622 5.28546L32.341 5.61874ZM18.8621 3.81569L18.7432 3.43375L18.7423 3.43403L18.8621 3.81569ZM4.33007 15.1372L4.66243 15.3597L4.66363 15.358L4.33007 15.1372ZM3.65613 16.7725L3.26508 16.6883L3.26478 16.6897L3.65613 16.7725ZM2.26611 18.1562L2.24623 18.5557L2.24882 18.5559L2.26611 18.1562ZM1.04458 16.2274L1.43254 16.3248L1.43486 16.3155L1.43675 16.3062L1.04458 16.2274ZM2.01338 13.8373L2.34876 14.0553L2.35319 14.0485L2.35735 14.0415L2.01338 13.8373ZM13.1335 3.06093L12.9432 2.70911L12.9415 2.71001L13.1335 3.06093ZM35.7107 4.31887L35.4655 4.635L35.4714 4.63939L35.7107 4.31887ZM36.3004 4.65432L36.1222 5.01241L36.2904 5.09615L36.4623 5.02012L36.3004 4.65432ZM37.522 4.10921L37.3628 3.74225L37.3531 3.74644L37.3437 3.75112L37.522 4.10921ZM63.511 6.83475L63.7511 6.51484L63.7511 6.51483L63.511 6.83475ZM76.0212 21.7623L75.6668 21.9479L75.6686 21.9512L76.0212 21.7623ZM77.1163 24.0266L76.7589 24.2062L77.2096 25.1035L77.4993 24.142L77.1163 24.0266ZM26.9915 22.9783L26.5918 22.965L26.5917 22.9654L26.9915 22.9783ZM27.7919 26.836L27.4197 26.9829L27.4226 26.9897L27.7919 26.836ZM34.9525 29.4358L34.7784 29.0757L34.7764 29.0766L34.9525 29.4358ZM38.4065 26.2071L38.7482 26.4151L38.7515 26.4095L38.4065 26.2071ZM35.5001 8.67974L35.769 8.38355L35.53 8.16669L35.2675 8.35431L35.5001 8.67974ZM78.0127 22.3083C78.4823 20.141 78.853 17.9989 79.359 15.8582L78.5804 15.6741C78.0755 17.8104 77.688 20.0291 77.2309 22.1389L78.0127 22.3083ZM79.3583 15.8611C79.5396 15.1191 79.7903 14.6297 80.0586 14.3501C80.3105 14.0876 80.5772 14.0061 80.8749 14.0626L81.0239 13.2766C80.4371 13.1653 79.9034 13.3564 79.4814 13.7962C79.0758 14.2189 78.7789 14.8618 78.5811 15.6712L79.3583 15.8611ZM80.8782 14.0632C81.0519 14.0946 81.1749 14.1551 81.2647 14.2326C81.3543 14.3099 81.4311 14.4215 81.4858 14.5867C81.6001 14.9319 81.606 15.4773 81.4422 16.2725L82.2257 16.4339C82.3989 15.5937 82.4259 14.8812 82.2453 14.3354C82.1525 14.0551 82.003 13.8129 81.7872 13.6268C81.5716 13.4409 81.3103 13.3284 81.0207 13.276L80.8782 14.0632ZM81.4422 16.2723C80.8096 19.3374 80.2192 22.4439 79.6711 25.5077L80.4586 25.6485C81.0057 22.5903 81.5947 19.491 82.2257 16.434L81.4422 16.2723ZM79.6722 25.5017C79.4146 26.8269 79.328 28.1996 79.2033 29.5241L79.9998 29.5991C80.1278 28.2399 80.2097 26.929 80.4575 25.6544L79.6722 25.5017ZM79.2033 29.5235C79.1198 30.397 78.9235 31.0469 78.2291 31.3296L78.5309 32.0705C79.6899 31.5985 79.9148 30.4873 79.9997 29.5997L79.2033 29.5235ZM78.2382 31.3261C77.5874 31.5729 77.0818 31.2706 76.451 30.7263L75.9284 31.332C76.5612 31.878 77.4035 32.4982 78.5218 32.0741L78.2382 31.3261ZM76.4719 30.7457C76.4214 30.6955 76.3426 30.6165 76.1994 30.5453L75.8429 31.2615C75.8598 31.2699 75.8677 31.2757 75.872 31.2792C75.8787 31.2845 75.8852 31.2905 75.9075 31.3127L76.4719 30.7457ZM76.2614 30.5836C75.1455 29.7452 74.019 28.8962 72.8922 28.0471C71.7655 27.198 70.6385 26.3487 69.522 25.5099L69.0414 26.1495C70.1574 26.9879 71.2839 27.8368 72.4107 28.686C73.5374 29.5351 74.6644 30.3843 75.7809 31.2232L76.2614 30.5836ZM69.5281 25.5146C69.2227 25.2757 68.9064 25.0586 68.6104 24.8518C68.3103 24.6422 68.0288 24.4417 67.7703 24.2239L67.2549 24.8357C67.5439 25.0792 67.8521 25.298 68.1523 25.5077C68.4566 25.7202 68.7511 25.9224 69.0353 26.1447L69.5281 25.5146ZM67.7703 24.2239C67.5279 24.0197 67.3797 23.8184 67.3213 23.6269C67.2682 23.4527 67.2756 23.2433 67.4357 22.9722L66.747 22.5652C66.486 23.0069 66.4302 23.4474 66.5561 23.8603C66.6767 24.2559 66.9497 24.5787 67.2549 24.8357L67.7703 24.2239ZM67.4291 22.983C67.6303 22.6659 67.8351 22.5658 68.019 22.5484C68.2254 22.5288 68.4924 22.6054 68.8124 22.8114L69.2456 22.1389C68.8495 21.8837 68.4005 21.7087 67.9434 21.752C67.4638 21.7975 67.0579 22.0747 66.7536 22.5544L67.4291 22.983ZM68.8206 22.8166C69.4652 23.2099 70.1006 23.6349 70.7441 24.0656C71.3853 24.4945 72.0346 24.9291 72.6958 25.3325L73.1125 24.6496C72.468 24.2563 71.8326 23.8313 71.189 23.4007C70.5479 22.9717 69.8986 22.5372 69.2373 22.1337L68.8206 22.8166ZM72.6929 25.3307C72.9016 25.4606 73.1273 25.5458 73.3412 25.6204C73.5644 25.6981 73.7761 25.7648 74.0146 25.8637L74.3211 25.1248C74.0541 25.014 73.8024 24.9339 73.6044 24.8649C73.3971 24.7927 73.2437 24.7312 73.1155 24.6514L72.6929 25.3307ZM74.56 25.4154C74.5206 25.2195 74.501 25.073 74.4857 24.9517C74.4716 24.839 74.4579 24.7137 74.4294 24.6001L73.6535 24.795C73.6671 24.8491 73.6745 24.9124 73.692 25.0514C73.7083 25.1816 73.7308 25.3497 73.7757 25.573L74.56 25.4154ZM74.4089 24.5394C74.348 24.3979 74.2866 24.2453 74.2231 24.0872C74.1603 23.9309 74.0952 23.7689 74.0298 23.6169L73.295 23.9332C73.3559 24.0747 73.4172 24.2272 73.4808 24.3854C73.5435 24.5417 73.6086 24.7036 73.6741 24.8557L74.4089 24.5394ZM74.0218 23.5996C71.0872 17.5874 66.9179 12.5902 61.6025 8.61111L61.1231 9.25154C66.3382 13.1556 70.4248 18.0541 73.3029 23.9505L74.0218 23.5996ZM61.6028 8.6113C54.992 3.65422 47.6865 3.10788 40.0415 5.82894L40.3098 6.58262C47.7443 3.93646 54.7602 4.48034 61.1229 9.25135L61.6028 8.6113ZM40.0326 5.83223C39.7325 5.94714 39.4497 6.09429 39.1682 6.24762C38.8814 6.40382 38.5986 6.5649 38.2704 6.72825L38.6269 7.44444C38.9726 7.27233 39.2795 7.09796 39.5509 6.95016C39.8275 6.79949 40.0712 6.67409 40.3186 6.57934L40.0326 5.83223ZM38.1077 7.29561C38.5795 8.06416 38.9471 8.63235 39.3276 9.2636L40.0127 8.85063C39.635 8.22394 39.2444 7.61806 38.7895 6.87707L38.1077 7.29561ZM39.3276 9.2636C41.9379 13.5944 43.0064 18.2359 42.1404 23.2032L42.9285 23.3406C43.8316 18.1605 42.7098 13.3254 40.0127 8.85063L39.3276 9.2636ZM42.14 23.2051C41.5255 26.8349 39.7341 29.74 36.4438 31.5597L36.831 32.2598C40.3644 30.3056 42.2797 27.1726 42.9288 23.3386L42.14 23.2051ZM36.4423 31.5605C32.5037 33.761 27.9443 32.525 25.6957 28.6077L25.0019 29.0059C27.4709 33.3072 32.5153 34.6709 36.8325 32.2589L36.4423 31.5605ZM25.696 28.6082C24.0372 25.7083 24.0244 22.5937 24.7697 19.3787L23.9903 19.198C23.2192 22.5244 23.2064 25.8671 25.0016 29.0054L25.696 28.6082ZM24.769 19.3816C25.8412 14.9067 28.3152 11.2868 31.8427 8.27093L31.3229 7.66287C27.6898 10.769 25.1091 14.529 23.991 19.1952L24.769 19.3816ZM31.8405 8.27283C32.388 7.81166 32.9372 7.34901 33.5711 6.80216L33.0485 6.19644C32.4187 6.73981 31.8728 7.19965 31.3251 7.66097L31.8405 8.27283ZM33.592 6.21582C33.2208 5.84631 32.9004 5.52573 32.5728 5.29275L32.1092 5.94473C32.3712 6.13106 32.6406 6.39753 33.0276 6.78278L33.592 6.21582ZM32.5622 5.28546C28.2845 2.44657 23.567 1.93312 18.7432 3.43375L18.9809 4.19764C23.5923 2.76307 28.0574 3.25597 32.1198 5.95203L32.5622 5.28546ZM18.7423 3.43403C12.4921 5.39438 7.61961 9.44266 3.99652 14.9164L4.66363 15.358C8.20122 10.0134 12.9325 6.0947 18.9818 4.19736L18.7423 3.43403ZM3.99772 14.9146C3.62807 15.4666 3.40023 16.0605 3.26508 16.6883L4.04717 16.8567C4.16476 16.3104 4.35813 15.8141 4.66243 15.3597L3.99772 14.9146ZM3.26478 16.6897C3.1809 17.0864 3.08996 17.3561 2.95135 17.5259C2.83974 17.6627 2.66546 17.7731 2.28341 17.7566L2.24882 18.5559C2.83556 18.5813 3.27205 18.3982 3.57112 18.0318C3.8432 17.6984 3.96286 17.2553 4.04747 16.8553L3.26478 16.6897ZM2.286 17.7567C1.74009 17.7296 1.22987 17.1318 1.43254 16.3248L0.65663 16.13C0.353832 17.3357 1.10727 18.499 2.24623 18.5557L2.286 17.7567ZM1.43675 16.3062C1.5956 15.5155 1.91386 14.7244 2.34876 14.0553L1.678 13.6193C1.18623 14.3759 0.830542 15.262 0.652419 16.1486L1.43675 16.3062ZM2.35735 14.0415C5.05932 9.48955 8.714 5.93463 13.3255 3.41185L12.9415 2.71001C8.20199 5.30285 4.44326 8.96013 1.66942 13.6331L2.35735 14.0415ZM13.3238 3.41274C17.154 1.34056 20.9164 0.277098 24.5972 0.410157C28.2736 0.543054 31.9012 1.87059 35.4656 4.63495L35.9559 4.00279C32.2753 1.14834 28.4895 -0.249664 24.6261 -0.389321C20.7672 -0.528816 16.8634 0.588154 12.9432 2.70912L13.3238 3.41274ZM35.4714 4.63939C35.6739 4.79054 35.876 4.88987 36.1222 5.01241L36.4787 4.29623C36.2194 4.16718 36.0846 4.09879 35.95 3.99835L35.4714 4.63939ZM36.4623 5.02012C36.8228 4.8606 37.2687 4.68208 37.7002 4.46731L37.3437 3.75112C36.9328 3.95566 36.5362 4.11259 36.1386 4.28852L36.4623 5.02012ZM37.6811 4.47617C46.7432 0.544947 55.3503 1.21006 63.2709 7.15467L63.7511 6.51483C55.5813 0.383201 46.6658 -0.293489 37.3628 3.74225L37.6811 4.47617ZM63.2709 7.15467C68.526 11.099 72.6167 16.1249 75.6668 21.9479L76.3755 21.5767C73.2758 15.659 69.1107 10.5375 63.7511 6.51484L63.2709 7.15467ZM75.6686 21.9512C75.831 22.2544 75.974 22.5592 76.143 22.9219C76.3113 23.2831 76.5032 23.697 76.7589 24.2062L77.4738 23.8471C77.2241 23.3499 77.0368 22.9461 76.8682 22.584C76.7002 22.2234 76.5483 21.8992 76.3738 21.5734L75.6686 21.9512ZM77.4993 24.142C77.7433 23.3324 77.9265 22.8262 78.0163 22.2896L77.2273 22.1575C77.1486 22.6274 76.9948 23.0436 76.7334 23.9112L77.4993 24.142ZM26.5917 22.9654C26.5471 24.3436 26.9475 25.7861 27.4198 26.9829L28.1639 26.6892C27.7095 25.5378 27.3517 24.2128 27.3913 22.9913L26.5917 22.9654ZM27.4226 26.9897C28.7384 30.1515 32.113 31.2735 35.1286 29.7949L34.7764 29.0766C32.1478 30.3655 29.2884 29.391 28.1611 26.6823L27.4226 26.9897ZM35.1267 29.7959C36.6811 29.0443 37.8725 27.8535 38.7482 26.4151L38.0649 25.9991C37.2557 27.3281 36.1725 28.4016 34.7784 29.0757L35.1267 29.7959ZM38.7515 26.4095C40.2048 23.9326 40.5478 20.4216 40.0018 17.0647C39.4555 13.7059 38.0051 10.4132 35.769 8.38355L35.2313 8.97592C37.2915 10.8459 38.6843 13.9478 39.2122 17.1931C39.7403 20.4405 39.3883 23.7433 38.0615 26.0046L38.7515 26.4095ZM35.2675 8.35431C30.2754 11.9222 26.8079 16.5113 26.5918 22.965L27.3913 22.9917C27.5964 16.866 30.8684 12.4817 35.7327 9.00517L35.2675 8.35431Z" fill="white" mask="url(#path-1-inside-1_573_241)"/>
</svg>