<svg width="28" height="28" viewBox="0 0 28 28" fill="none" xmlns="http://www.w3.org/2000/svg">
<path d="M27.5 14C27.5 21.4558 21.4558 27.5 14 27.5C6.54416 27.5 0.5 21.4558 0.5 14C0.5 6.54416 6.54416 0.5 14 0.5C21.4558 0.5 27.5 6.54416 27.5 14Z" stroke="#2A3832" stroke-opacity="0.75"/>
<path d="M20.0007 11.0241C19.9564 11.2294 19.9258 11.4381 19.8668 11.6378C19.7398 12.0688 19.5107 12.4431 19.1942 12.7618C18.3174 13.6409 17.4486 14.529 16.5559 15.3922C15.5396 16.3756 13.7872 16.4266 12.6971 15.3502C12.3829 15.0394 12.358 14.5664 12.6427 14.2398C12.9149 13.929 13.406 13.8893 13.7441 14.1604C13.9187 14.2999 14.0866 14.4405 14.3112 14.4984C14.7399 14.6095 15.1267 14.5335 15.4534 14.233C15.7177 13.9902 15.9661 13.7293 16.2202 13.4764C16.8202 12.8775 17.4214 12.2809 18.018 11.6786C18.567 11.1251 18.4966 10.2562 17.8739 9.82179C17.4021 9.49285 16.7567 9.55297 16.3302 9.97378C15.8549 10.4434 15.3819 10.9141 14.9146 11.3905C14.7967 11.5107 14.6866 11.5391 14.5301 11.4767C14.1376 11.3202 13.7259 11.2578 13.3051 11.2578C13.2075 11.2578 13.1282 11.2294 13.085 11.1353C13.0408 11.0389 13.0782 10.9606 13.1463 10.8925C13.8768 10.1655 14.5925 9.42253 15.3434 8.71588C16.4357 7.68823 18.2312 7.78351 19.2441 8.89056C19.6581 9.34313 19.9043 9.86943 19.978 10.4774C19.9825 10.5114 19.9927 10.5443 19.9995 10.5783C20.0007 10.7281 20.0007 10.8755 20.0007 11.0241Z" fill="#2A3832" fill-opacity="0.75"/>
<path d="M10.5785 20.001C10.3176 19.9386 10.0488 19.8978 9.79814 19.8082C8.59014 19.3795 7.82224 18.041 8.03549 16.7786C8.14097 16.157 8.41547 15.6284 8.85897 15.1849C9.68244 14.3626 10.5025 13.5368 11.3271 12.7156C12.2867 11.7617 13.6728 11.587 14.8082 12.2778C15.0487 12.4241 15.2823 12.5875 15.4343 12.8325C15.6351 13.1535 15.5716 13.5788 15.3027 13.817C15.009 14.0779 14.5711 14.0983 14.2683 13.8578C14.0879 13.7149 13.9167 13.5652 13.683 13.5051C13.2713 13.3996 12.9026 13.4733 12.5737 13.7399C12.5374 13.7694 12.5034 13.8023 12.4705 13.8352C11.6391 14.6654 10.8065 15.4957 9.97622 16.3283C9.54406 16.7616 9.47601 17.4002 9.80494 17.88C10.2314 18.5015 11.1037 18.5821 11.6515 18.0456C12.0474 17.6576 12.4364 17.2618 12.8278 16.8693C12.8936 16.8035 12.9684 16.7434 13.0251 16.6686C13.1646 16.4837 13.3212 16.461 13.5356 16.5495C13.8849 16.6946 14.2581 16.7389 14.6358 16.7445C14.671 16.7445 14.7061 16.7434 14.7413 16.7468C14.9148 16.7684 14.9885 16.9385 14.8797 17.0746C14.8263 17.1415 14.7617 17.1994 14.7004 17.2595C14.0256 17.9321 13.3563 18.6104 12.6724 19.274C12.2538 19.68 11.7355 19.8989 11.1593 19.9772C11.1207 19.9829 11.0844 19.9931 11.0458 20.001C10.8904 20.001 10.735 20.001 10.5785 20.001Z" fill="#2A3832" fill-opacity="0.75"/>
</svg>
