<?xml version="1.0"?>
<!--Icons from directory ""-->
<svg xmlns="http://www.w3.org/2000/svg" width="25" height="96" viewBox="0 0 25 96"><svg width="25" height="24" fill="none" id="Group-1" y="0"><path d="M7.487 24c9.138 0 14.058-9.278 14.058-17.32v-.742c1.004-.866 1.808-1.98 2.51-3.093-.903.495-1.807.866-2.811.99 1.004-.742 1.808-1.98 2.21-3.34-1.005.742-2.01 1.237-3.114 1.484C19.436.742 18.131 0 16.725 0c-2.711 0-4.92 2.722-4.92 6.062 0 .495 0 .99.1 1.36C7.687 7.053 4.072 4.578 1.662.867 1.16 1.856.96 2.846.96 3.959c0 2.103.904 3.959 2.21 5.072-.804 0-1.607-.247-2.21-.742v.123c0 2.97 1.708 5.444 4.017 5.938-.402.124-.803.248-1.305.248-.302 0-.603 0-.904-.124.602 2.474 2.41 4.206 4.62 4.206-1.708 1.609-3.817 2.598-6.126 2.598-.402 0-.804 0-1.205-.123C2.164 22.887 4.776 24 7.486 24z" fill="#000"/></svg><svg width="25" height="24" fill="none" id="Group-2" y="24"><path d="M23.796 5.087s-.23-2.33-.95-3.348c-.91-1.356-1.93-1.356-2.4-1.44-3.35-.34-8.39-.297-8.39-.297s-5.02-.043-8.37.296c-.46.085-1.48.085-2.39 1.441-.72 1.017-.96 3.348-.96 3.348s-.24 2.754-.28 5.48v2.853c.04 2.74.28 5.467.28 5.467s.24 2.33.96 3.361c.91 1.342 2.1 1.3 2.64 1.441 1.88.254 7.91.31 8.12.31 0 0 5.05.015 8.4-.324.46-.085 1.48-.085 2.39-1.44.72-1.018.96-3.348.96-3.348s.24-2.74.25-5.467v-2.853c-.02-2.726-.26-5.48-.26-5.48zM9.626 16.952V7.05l6.43 5.141-6.43 4.76z" fill="#000"/></svg><svg width="25" height="24" fill="none" id="Group-3" y="48"><path d="M21.656 0h-19.2A2.397 2.397 0 00.068 2.4L.056 21.6c0 1.32 1.08 2.4 2.4 2.4h19.2c1.32 0 2.4-1.08 2.4-2.4V2.4c0-1.32-1.08-2.4-2.4-2.4zm-1.2 2.4V6h-2.4c-.66 0-1.2.54-1.2 1.2v2.4h3.6v3.6h-3.6v8.4h-3.6v-8.4h-2.4V9.6h2.4v-3c0-2.316 1.884-4.2 4.2-4.2h3z" fill="#000"/></svg><svg width="25" height="24" fill="none" id="Group" y="72"><path d="M21.656 0h-19.2A2.397 2.397 0 00.068 2.4L.056 21.6c0 1.32 1.08 2.4 2.4 2.4h19.2c1.32 0 2.4-1.08 2.4-2.4V2.4c0-1.32-1.08-2.4-2.4-2.4zm-4.8 8.4v1.2c0 .66.54 1.2 1.2 1.2.66 0 1.2.54 1.2 1.2v3.6c0 1.992-1.608 3.6-3.6 3.6h-7.2a3.595 3.595 0 01-3.6-3.6V7.2c0-1.992 1.608-3.6 3.6-3.6h4.8c1.992 0 3.6 1.608 3.6 3.6v1.2zm-7.26 1.2h3.12c.66 0 1.2-.54 1.2-1.2 0-.66-.54-1.2-1.2-1.2h-3.12c-.66 0-1.2.54-1.2 1.2 0 .66.54 1.2 1.2 1.2zm4.86 3.6h-4.86c-.66 0-1.2.54-1.2 1.2 0 .66.54 1.2 1.2 1.2h4.86c.66 0 1.2-.54 1.2-1.2 0-.66-.54-1.2-1.2-1.2z" fill="#000"/></svg></svg>
