<svg width="68" height="68" viewBox="0 0 68 68" fill="none" xmlns="http://www.w3.org/2000/svg">
<g filter="url(#filter0_d_403_1529)">
<path d="M34 44C41.732 44 48 37.732 48 30C48 22.268 41.732 16 34 16C26.268 16 20 22.268 20 30C20 37.732 26.268 44 34 44Z" fill="white"/>
</g>
<path d="M39.0374 31.8773C38.3106 31.8784 37.5883 31.7633 36.8979 31.5363C36.7362 31.4845 36.5639 31.4758 36.3978 31.5109C36.2317 31.546 36.0776 31.6237 35.9507 31.7364L34.6009 32.7546C33.1472 32.0326 31.9688 30.8562 31.2442 29.4038L32.2329 28.0896C32.3589 27.9634 32.4477 27.8049 32.4894 27.6315C32.5312 27.4581 32.5244 27.2766 32.4697 27.1069C32.2427 26.4148 32.128 25.6909 32.1298 24.9626C32.1295 24.7074 32.028 24.4627 31.8476 24.2823C31.6671 24.1018 31.4224 24.0003 31.1672 24H28.9626C28.7074 24.0003 28.4627 24.1018 28.2823 24.2823C28.1018 24.4627 28.0003 24.7074 28 24.9626C28.0034 27.8888 29.1674 30.6942 31.2366 32.7634C33.3058 34.8326 36.1112 35.9966 39.0374 36C39.2926 35.9997 39.5373 35.8982 39.7177 35.7177C39.8982 35.5373 39.9997 35.2926 40 35.0374V32.8399C39.9997 32.5847 39.8982 32.34 39.7177 32.1595C39.5373 31.9791 39.2926 31.8776 39.0374 31.8773Z" fill="#2E4E78"/>
<defs>
<filter id="filter0_d_403_1529" x="0" y="0" width="68" height="68" filterUnits="userSpaceOnUse" color-interpolation-filters="sRGB">
<feFlood flood-opacity="0" result="BackgroundImageFix"/>
<feColorMatrix in="SourceAlpha" type="matrix" values="0 0 0 0 0 0 0 0 0 0 0 0 0 0 0 0 0 0 127 0" result="hardAlpha"/>
<feOffset dy="4"/>
<feGaussianBlur stdDeviation="10"/>
<feColorMatrix type="matrix" values="0 0 0 0 0.203922 0 0 0 0 0.329412 0 0 0 0 0.419608 0 0 0 0.12 0"/>
<feBlend mode="normal" in2="BackgroundImageFix" result="effect1_dropShadow_403_1529"/>
<feBlend mode="normal" in="SourceGraphic" in2="effect1_dropShadow_403_1529" result="shape"/>
</filter>
</defs>
</svg>