<svg width="12" height="10" viewBox="0 0 12 10" fill="none" xmlns="http://www.w3.org/2000/svg">
<path d="M11.4062 1.09483C10.977 1.2817 10.5232 1.40586 10.0585 1.46349C10.5482 1.17338 10.9142 0.713958 11.0873 0.172321C10.6289 0.443742 10.1273 0.634866 9.6044 0.737424C9.28329 0.396431 8.86703 0.159596 8.40954 0.0576074C7.95205 -0.0443809 7.47443 -0.00681914 7.03857 0.165422C6.60272 0.337663 6.22871 0.636642 5.96502 1.02362C5.70133 1.4106 5.56011 1.86774 5.55967 2.33581C5.55798 2.51469 5.57629 2.6932 5.61427 2.86802C4.68386 2.82246 3.77356 2.5813 2.9429 2.16032C2.11225 1.73933 1.37994 1.14801 0.793867 0.425016C0.492666 0.938891 0.399295 1.5482 0.532824 2.1285C0.666354 2.70879 1.01671 3.2163 1.51233 3.54736C1.14221 3.53753 0.779869 3.43899 0.455867 3.26005V3.28601C0.456468 3.82521 0.643126 4.34774 0.984411 4.7656C1.3257 5.18347 1.80076 5.47113 2.3296 5.58017C2.12967 5.63283 1.92363 5.65873 1.71687 5.65719C1.56824 5.65986 1.41976 5.64651 1.274 5.61738C1.42507 6.08082 1.71629 6.48612 2.10756 6.77748C2.49884 7.06884 2.97093 7.23193 3.45887 7.24432C2.63081 7.88945 1.61015 8.23892 0.559867 8.23693C0.372751 8.2382 0.185746 8.22751 0 8.20491C1.06929 8.89276 2.31517 9.25675 3.58713 9.2529C4.46273 9.259 5.33081 9.0913 6.14095 8.75955C6.95109 8.42781 7.68713 7.93862 8.30633 7.32042C8.92552 6.70221 9.41552 5.96731 9.74786 5.15841C10.0802 4.3495 10.2483 3.48271 10.2423 2.6084C10.2423 2.50542 10.2423 2.4059 10.2336 2.30638C10.695 1.97707 11.0923 1.5665 11.4062 1.09483Z" fill="#6F707D"/>
</svg>
